<?xml version="1.0" encoding="utf-8"?>
<!-- Generator: Adobe Illustrator 17.0.0, SVG Export Plug-In . SVG Version: 6.00 Build 0)  -->
<!DOCTYPE svg PUBLIC "-//W3C//DTD SVG 1.1//EN" "http://www.w3.org/Graphics/SVG/1.1/DTD/svg11.dtd">
<svg version="1.1" id="Layer_1" xmlns="http://www.w3.org/2000/svg" xmlns:xlink="http://www.w3.org/1999/xlink" x="0px" y="0px"
	 width="3938.564px" height="910.279px" viewBox="0 0 3938.564 910.279" enable-background="new 0 0 3938.564 910.279"
	 xml:space="preserve">
<path fill="#F9A469" d="M2463.182,295.455c0,0,0,19.04,76.16,19.04s87.04-19.04,87.04-19.04s-13.6-78.88-68-84.32
	C2503.982,205.695,2459.099,219.019,2463.182,295.455z"/>
<path fill="#F9A469" d="M1320.781,292.735c0,0,35.36,27.2,84.32,21.76c48.96-5.44,73.44-10.52,73.44-10.52
	s19.04-108.588-78.88-93.914C1301.74,224.735,1320.781,292.735,1320.781,292.735z"/>
<rect x="306.219" y="248.127" fill="#414142" width="3334.723" height="90.848"/>
<path fill="#F9A469" d="M2503.982,398.815c0,0,13.6,103.36,19.04,160.48c5.44,57.12,51.68,116.96,51.68,116.96
	c-46.06,0-194.675,164.455-250.511,228.153c79.296-10.441,204.573-24.547,309.019-25.564
	c51.64-59.052,85.652-143.451,85.652-183.549c0-54.4-127.84-337.28-127.84-337.28l24.48-40.8c0,0-51.68,16.32-114.24,13.6
	c-62.56-2.72-76.16-68-76.16-68s-27.2-40.8-27.2,13.6S2503.982,398.815,2503.982,398.815z"/>
<path fill="#F9A469" d="M1217.42,695.295c4.679,18.716,60.329,111.65,106.961,187.543c98.739,6.707,230.069,20.01,300.45,27.441
	c-54.895-67.675-178.57-210.083-255.091-220.424c0,0,35.36-44.935,40.8-113.588c5.44-68.652,29.92-191.052,29.92-191.052
	s114.24-62.56,111.52-92.48c-2.72-29.92-13.6-44.608-13.6-44.608s-54.4,88.128-95.2,90.848s-116.96-21.76-116.96-21.76l21.76,51.68
	C1347.981,368.895,1209.26,662.655,1217.42,695.295z"/>
<path fill="#3B7CB8" d="M826.881,65.28c0-36.053-29.227-65.28-65.28-65.28H65.28C29.227,0,0,29.227,0,65.28v554.269
	c0,36.053,29.227,65.28,65.28,65.28h696.321c36.053,0,65.28-29.227,65.28-65.28V65.28z"/>
<path fill="#23407D" d="M826.881,619.549V292.253C664.807,257.016,402.574,475.349,190.71,466.815
	C113.776,463.716,50.763,444.666,0,419.397v200.152c0,36.053,29.227,65.28,65.28,65.28h696.321
	C797.654,684.829,826.881,655.602,826.881,619.549z"/>
<path fill="#FFFFFF" d="M565.161,342.612l28.263-34.507c0,0-19.627-36.113-84.003-27.478c-64.376,8.636-67.516,61.985-67.516,61.985
	s-6.281,49.496,48.674,70.692s50.245,36.898,50.245,36.898s-18.842,45.534-67.516,0l-37.683,32.973
	c38.78,55.233,156.915,42.534,164.08-24.337c4.71-43.964-23.552-76.152-60.451-81.647c-36.898-5.495-38.469-36.113-34.543-40.039
	C508.636,333.227,530.618,314.313,565.161,342.612z"/>
<path fill="#FFFFFF" d="M296.928,323.544v-99.442c0,0,61.772,0,61.759,55.191C358.675,332.401,296.928,323.544,296.928,323.544z
	 M299.022,172.287c-28.301,0.513-68.732,0-68.732,0v340.721h68.732V377.976c0,0,130.322,6.281,130.322-98.919
	S337.49,171.59,299.022,172.287z"/>
<path fill="#FACF5E" d="M3938.564,67.281c0-36.053-29.227-65.28-65.28-65.28h-696.321c-36.053,0-65.28,29.227-65.28,65.28v554.269
	c0,36.053,29.227,65.28,65.28,65.28h696.321c36.053,0,65.28-29.227,65.28-65.28V67.281z"/>
<path fill="#E78625" d="M3938.564,621.549V294.253c-162.073-35.236-424.306,183.096-636.17,174.563
	c-76.935-3.099-139.947-22.149-190.71-47.418v200.152c0,36.053,29.227,65.28,65.28,65.28h696.321
	C3909.337,686.829,3938.564,657.603,3938.564,621.549z"/>
<path fill="#474747" d="M3491.144,158.324h-94.178l1.46,36.503l-97.828,327.413l61.325,3.997l35.043-98.559l105.129-1.052
	l33.583,99.61l65.705-2.882L3491.144,158.324z M3410.107,365.661l40.883-153.313l39.423,153.313H3410.107z"/>
<rect x="3652.487" y="275.651" fill="#474747" width="70.086" height="250.586"/>
<path fill="#474747" d="M3732.607,195.445c0-24.536-19.89-44.427-44.427-44.427l0,0c-24.536,0-44.427,19.891-44.427,44.427l0,0
	c0,24.536,19.89,44.427,44.427,44.427l0,0C3712.716,239.872,3732.607,219.981,3732.607,195.445L3732.607,195.445z"/>
</svg>
