<?xml version="1.0" encoding="utf-8"?>
<!-- Generator: Adobe Illustrator 17.0.0, SVG Export Plug-In . SVG Version: 6.00 Build 0)  -->
<!DOCTYPE svg PUBLIC "-//W3C//DTD SVG 1.1//EN" "http://www.w3.org/Graphics/SVG/1.1/DTD/svg11.dtd">
<svg version="1.1" xmlns="http://www.w3.org/2000/svg" xmlns:xlink="http://www.w3.org/1999/xlink" x="0px" y="0px"
	 width="4731.473px" height="2313.231px" viewBox="0 0 4731.473 2313.231" enable-background="new 0 0 4731.473 2313.231"
	 xml:space="preserve">
<g id="build">
</g>
<g id="equipment">
</g>
<g id="shoe">
</g>
<g id="arm">
</g>
<g id="leg">
</g>
<g id="head">
</g>
<g id="Layer_10">
	
		<image overflow="visible" width="93" height="193" xlink:href="DF97F81.jpg"  transform="matrix(0.9999 0 0 0.9999 2457.3977 1347.0192)">
	</image>
	<rect x="1779.074" y="1667.349" fill="#505352" width="462.4" height="92.48"/>
	<polygon fill="#505352" points="2563.66,1884.949 1463.293,1884.949 1457.853,1787.029 2569.1,1787.029 	"/>
	<polygon fill="#505352" points="2536.46,2118.87 1490.493,2118.87 1485.053,2020.949 2541.9,2020.949 	"/>
	<rect x="1966.754" y="1835.989" fill="#505352" width="103.36" height="414.345"/>
	<rect x="1096.354" y="84.308" fill="#414142" width="127.84" height="2166.027"/>
	<rect x="2810.56" y="84.308" fill="#414142" width="119.076" height="2166.027"/>
	<path fill="#F8DCC0" d="M3054.756,2203.19c-2.72-29.92-70.72-29.92-187.68-54.4c-64.836-13.57-93.701-37.997-106.578-57.082
		l-2.222,8.122l-191.249,140.249l-1.871,10.256h489.601C3054.756,2250.335,3057.476,2233.11,3054.756,2203.19z"/>
	<path fill="#F8DCC0" d="M1254.114,2118.87c0,0-0.359-1.437-1.028-4.128c-17.247,21.048-52.017,49.843-115.932,56.279
		c-103.36,10.409-141.44,13.129-163.2,43.049c-21.76,29.92,0,36.265,0,36.265l489.34-0.885
		C1414.029,2238.234,1254.114,2118.87,1254.114,2118.87z"/>
	<path fill="#82181B" d="M1254.114,2118.87c0,0-0.359-1.437-1.028-4.128c-17.247,21.048-52.017,49.843-115.932,56.279
		c-39.295,3.957-69.136,6.805-92.251,10.457c16.66,13.168,30.58,28.406,26.971,40.752c-5.893,20.159,217.556,11.231,342.505,4.693
		C1348.303,2189.16,1254.114,2118.87,1254.114,2118.87z"/>
	<path fill="#F8DCC0" d="M1205.154,2205.91c12.081,1.342,8.919-26.467,2.623-54.979c-10.053,5.23-21.64,9.896-34.95,13.534
		C1182.247,2185.209,1193.957,2204.666,1205.154,2205.91z"/>
	<path fill="#F8DCC0" d="M1119.74,2172.771c9.182,19.638,20.334,37.392,31.014,38.579c10.375,1.153,9.499-19.204,5.061-43.03
		c-5.948,1.096-12.114,2.042-18.661,2.702C1131.103,2171.63,1125.352,2172.207,1119.74,2172.771z"/>
	<path fill="#F8DCC0" d="M1096.354,2211.35c9.461,1.051,9.562-15.791,6.144-36.829c-12.661,1.3-24.111,2.537-34.473,3.797
		C1076.651,2195.635,1086.693,2210.276,1096.354,2211.35z"/>
	<path fill="#82181B" d="M2948.675,2234.649c-3.204-6.929,11.995-35.628,29.958-65.51c-29.464-5.234-66.934-11.009-111.558-20.349
		c-64.836-13.57-93.701-37.997-106.578-57.082l-2.222,8.122l-159.207,116.751
		C2712.395,2226.612,2954.234,2246.669,2948.675,2234.649z"/>
	<path fill="#F8DCC0" d="M2827.722,2137.824c-21.688-7.8-37.329-16.96-48.575-26.135c-27.295,18.856-60.174,46.141-44.445,59.331
		C2754.89,2187.95,2807.15,2152.899,2827.722,2137.824z"/>
	<path fill="#F8DCC0" d="M2867.075,2148.79c-13.111-2.744-24.684-5.948-35.018-9.446c-15.785,14.207-25.911,28.601-15.755,37.117
		c16.152,13.545,52.837-6.193,77.404-22.349C2885.113,2152.461,2876.285,2150.717,2867.075,2148.79z"/>
	<path fill="#F8DCC0" d="M2902.744,2155.831c-8.742,10.266-12.347,19.777-4.842,26.07c13.834,11.601,42.734-1.222,66.183-15.292
		C2946.083,2163.523,2925.59,2160.103,2902.744,2155.831z"/>
	<path fill="#2B4772" d="M2554.275,2249.43c0,0,19.04-448.8,24.48-489.6c5.44-40.8-160.48-108.8-239.36-108.8s-592.961,0-639.201,0
		c-46.24,0-220.32,62.56-220.32,62.56s-43.52,14.846-38.08,60.463c5.44,45.617,16.32,301.297,16.32,301.297
		s43.52,160.48,16.32,174.08c-27.2,13.6-220.32-130.56-220.32-130.56s-152.32-609.281-133.28-688.161
		c19.04-78.88,43.52-133.508,160.48-132.034c116.96,1.474,435.2,36.834,435.2,36.834s100.64-21.76,157.76-21.76
		c57.12,0,280.16,0,280.16,0s97.92-2.72,133.28,21.76c0,0,410.72-65.46,535.84-21.85s84.32,239.45,84.32,239.45l-149.6,546.72
		L2554.275,2249.43z"/>
	<path fill="#F9A469" stroke="#F9A469" stroke-miterlimit="10" d="M2287.715,1335.509c-35.36-24.48-133.28-21.76-133.28-21.76
		s-223.04,0-280.16,0c-57.12,0-157.76,21.76-157.76,21.76l-0.013-0.001c11.574,10.489,38.847,20.855,101.56,20.855
		c126.933,0,300.227,8.315,399.84,0c23.074-1.926,55.224-7.957,85.37-23.232C2293.302,1334.62,2287.715,1335.509,2287.715,1335.509z
		"/>
	<path fill="#414142" d="M1896.941,1287.456l-39.893-76.16h39.893c0,0,78.681-83.458,105.173-92.48v30.827l105.173-3.627
		l-14.507,21.306l86.487,9.521l-64.727,96.107L1896.941,1287.456z"/>
	<path fill="#F7945A" stroke="#F7945A" stroke-miterlimit="10" d="M1874.274,1313.749c57.12,0,280.16,0,280.16,0s2-0.053,5.44-0.077
		v8.237c0,0-8.428-41.297-36.467-78.384c-22.333-29.54-57.106-56.41-109.972-57.616c-56.463-1.288-103.734,31.509-126.015,61.2
		c-24.772,33.011-21.307,63.348-21.307,63.348v3.44C1868.908,1313.809,1871.651,1313.749,1874.274,1313.749z"/>
</g>
</svg>
