<?xml version="1.0" encoding="utf-8"?>
<!-- Generator: Adobe Illustrator 17.0.0, SVG Export Plug-In . SVG Version: 6.00 Build 0)  -->
<!DOCTYPE svg PUBLIC "-//W3C//DTD SVG 1.1//EN" "http://www.w3.org/Graphics/SVG/1.1/DTD/svg11.dtd">
<svg version="1.1" id="Layer_1" xmlns="http://www.w3.org/2000/svg" xmlns:xlink="http://www.w3.org/1999/xlink" x="0px" y="0px"
	 width="5443.163px" height="2993.486px" viewBox="0 0 5443.163 2993.486" enable-background="new 0 0 5443.163 2993.486"
	 xml:space="preserve">
<path fill="#F9A469" d="M3404.159,872.109c0,0,0,26.314,105.255,26.314c105.254,0,120.291-26.314,120.291-26.314
	s-18.795-109.014-93.977-116.532C3460.545,748.059,3398.517,766.473,3404.159,872.109z"/>
<path fill="#F9A469" d="M1825.341,868.35c0,0,48.868,37.591,116.532,30.073s101.495-14.539,101.495-14.539
	s26.314-150.07-109.014-129.79C1799.028,774.372,1825.341,868.35,1825.341,868.35z"/>
<rect x="423.201" y="806.701" fill="#505352" width="4608.645" height="125.554"/>
<rect x="2400.482" y="2187.79" fill="#505352" width="639.045" height="127.809"/>
<polygon fill="#505352" points="3484.793,2488.517 1964.067,2488.517 1956.549,2353.19 3492.311,2353.19 "/>
<polygon fill="#505352" points="3447.202,2811.799 2001.658,2811.799 1994.14,2676.471 3454.72,2676.471 "/>
<rect x="2659.859" y="2420.854" fill="#505352" width="142.845" height="572.632"/>
<rect x="1456.95" y="0" fill="#505352" width="176.677" height="2993.486"/>
<rect x="3826.012" y="0" fill="#505352" width="164.565" height="2993.486"/>
<path fill="#F8DCC0" d="M4163.495,2928.331c-3.759-41.35-97.736-41.35-259.377-75.182c-89.604-18.754-129.496-52.512-147.292-78.888
	l-3.071,11.225l-264.31,193.827l-2.586,14.174h676.636C4163.495,2993.486,4167.254,2969.68,4163.495,2928.331z"/>
<path fill="#F8DCC0" d="M1674.978,2811.799c0,0-0.496-1.986-1.42-5.704c-23.836,29.089-71.889,68.884-160.221,77.779
	c-142.845,14.385-195.473,18.144-225.545,59.494c-30.073,41.35,0,50.119,0,50.119l676.276-1.223
	C1895.984,2976.762,1674.978,2811.799,1674.978,2811.799z"/>
<path fill="#82181B" d="M1674.978,2811.799c0,0-0.496-1.986-1.42-5.704c-23.836,29.089-71.889,68.884-160.221,77.779
	c-54.306,5.469-95.547,9.405-127.492,14.452c23.024,18.199,42.262,39.258,37.274,56.319c-8.145,27.861,300.667,15.522,473.348,6.486
	C1805.148,2908.941,1674.978,2811.799,1674.978,2811.799z"/>
<path fill="#F8DCC0" d="M1607.314,2932.09c16.697,1.855,12.326-36.577,3.625-75.981c-13.894,7.229-29.907,13.676-48.301,18.704
	C1575.656,2903.481,1591.84,2930.37,1607.314,2932.09z"/>
<path fill="#F8DCC0" d="M1489.27,2886.291c12.689,27.141,28.102,51.677,42.862,53.317c14.338,1.593,13.127-26.541,6.995-59.469
	c-8.22,1.515-16.741,2.823-25.79,3.734C1504.975,2884.715,1497.026,2885.512,1489.27,2886.291z"/>
<path fill="#F8DCC0" d="M1456.95,2939.608c13.075,1.453,13.215-21.823,8.491-50.899c-17.497,1.797-33.322,3.506-47.642,5.248
	C1429.721,2917.89,1443.599,2938.124,1456.95,2939.608z"/>
<path fill="#82181B" d="M4016.891,2971.808c-4.428-9.576,16.577-49.238,41.403-90.537c-40.719-7.234-92.504-15.214-154.176-28.123
	c-89.604-18.754-129.496-52.512-147.292-78.888l-3.071,11.225l-220.027,161.353C3690.347,2960.7,4024.573,2988.42,4016.891,2971.808
	z"/>
<path fill="#F8DCC0" d="M3849.73,2837.995c-29.974-10.78-51.59-23.439-67.131-36.119c-37.722,26.06-83.162,63.768-61.423,81.997
	C3749.076,2907.27,3821.301,2858.828,3849.73,2837.995z"/>
<path fill="#F8DCC0" d="M3904.118,2853.149c-18.119-3.792-34.114-8.22-48.396-13.054c-21.815,19.635-35.809,39.527-21.774,51.296
	c22.322,18.719,73.022-8.559,106.973-30.887C3929.046,2858.223,3916.846,2855.813,3904.118,2853.149z"/>
<path fill="#F8DCC0" d="M3953.412,2862.88c-12.081,14.188-17.064,27.332-6.691,36.029c19.119,16.033,59.059-1.688,91.466-21.133
	C4013.307,2873.511,3984.986,2868.783,3953.412,2862.88z"/>
<path fill="#F9A469" d="M3460.545,1014.954c0,0,18.795,142.845,26.313,221.786c7.518,78.941,71.423,161.641,71.423,161.641
	c-63.656,0-269.043,227.279-346.21,315.311c109.588-14.429,282.724-33.925,427.069-35.33
	c71.367-81.611,118.372-198.252,118.372-253.667c0-75.182-176.677-466.127-176.677-466.127l33.832-56.386
	c0,0-71.423,22.555-157.882,18.795C3370.327,917.218,3351.532,827,3351.532,827s-37.591-56.386-37.591,18.795
	S3460.545,1014.954,3460.545,1014.954z"/>
<path fill="#F9A469" d="M1682.496,1424.695c6.466,25.865,83.375,154.302,147.822,259.188
	c136.458,9.269,317.959,27.654,415.227,37.924c-75.865-93.528-246.787-290.338-352.54-304.629c0,0,48.868-62.102,56.386-156.98
	c7.518-94.879,41.35-264.038,41.35-264.038s157.882-86.459,154.123-127.809s-18.795-61.649-18.795-61.649
	s-75.182,121.795-131.568,125.554c-56.386,3.759-161.641-30.073-161.641-30.073l30.073,71.423
	C1862.932,973.604,1671.219,1379.586,1682.496,1424.695z"/>
<path fill="#2B4772" d="M3471.823,2992.235c0,0,26.314-620.25,33.832-676.636s-221.786-150.364-330.8-150.364s-819.482,0-883.386,0
	s-304.486,86.459-304.486,86.459s-60.146,20.518-52.627,83.561c7.518,63.043,22.555,416.398,22.555,416.398
	s60.146,221.786,22.555,240.582c-37.591,18.795-304.486-180.436-304.486-180.436s-210.509-842.036-184.195-951.05
	c26.314-109.014,60.146-184.51,221.786-182.473c161.641,2.037,601.454,50.905,601.454,50.905s139.086-30.073,218.027-30.073
	s387.186,0,387.186,0s135.327-3.759,184.196,30.073c0,0,567.623-90.467,740.541-30.197s116.532,330.924,116.532,330.924
	l-206.75,755.577L3471.823,2992.235z"/>
<path fill="#F9A469" stroke="#F9A469" stroke-miterlimit="10" d="M3103.432,1729.181c-48.868-33.832-184.196-30.073-184.196-30.073
	s-308.245,0-387.186,0s-218.027,30.073-218.027,30.073l-0.018-0.002c15.996,14.495,53.688,28.821,140.357,28.821
	c175.424,0,414.918,11.491,552.586,0c31.888-2.661,76.32-10.996,117.983-32.107
	C3111.154,1727.952,3103.432,1729.181,3103.432,1729.181z"/>
<path fill="#414142" d="M2563.376,1662.771l-55.133-105.255h55.133c0,0,108.738-115.341,145.352-127.809v42.603l145.352-5.012
	l-20.049,29.445l119.527,13.158l-89.454,132.821L2563.376,1662.771z"/>
<path fill="#F7945A" d="M2532.05,1699.108c78.941,0,387.186,0,387.186,0s2.764-0.073,7.518-0.106v11.384
	c0,0-11.648-57.073-50.398-108.328c-30.864-40.825-78.922-77.959-151.983-79.626c-78.032-1.78-143.363,43.546-174.155,84.579
	c-34.235,45.622-29.446,87.548-29.446,87.548v4.754C2524.634,1699.192,2528.424,1699.108,2532.05,1699.108z"/>
<path fill="#3B7CB8" d="M1142.763,554.003c0-49.826-40.392-90.218-90.218-90.218H90.218C40.392,463.785,0,504.177,0,554.003v766.009
	c0,49.826,40.392,90.218,90.218,90.218h962.327c49.826,0,90.218-40.392,90.218-90.218L1142.763,554.003L1142.763,554.003z"/>
<path fill="#23407D" d="M1142.763,1320.012V867.683c-223.988-48.697-586.399,253.042-879.198,241.248
	C157.24,1104.648,70.156,1078.321,0,1043.399v276.613c0,49.826,40.392,90.218,90.218,90.218h962.327
	C1102.371,1410.23,1142.763,1369.838,1142.763,1320.012z"/>
<path fill="#FFFFFF" d="M781.062,937.28l39.059-47.689c0,0-27.125-49.909-116.093-37.974S610.72,937.28,610.72,937.28
	s-8.68,68.404,67.269,97.698s69.439,50.994,69.439,50.994s-26.04,62.929-93.309,0l-52.079,45.569
	c53.595,76.333,216.86,58.783,226.761-33.634c6.51-60.759-32.549-105.243-83.544-112.838s-53.164-49.909-47.739-55.334
	C702.943,924.31,733.323,898.171,781.062,937.28z"/>
<path fill="#FFFFFF" d="M410.36,910.929V773.498c0,0,85.37,0,85.352,76.275C495.695,923.168,410.36,910.929,410.36,910.929z
	 M413.253,701.889c-39.113,0.71-94.989,0-94.989,0v470.882h94.989V986.154c0,0,180.107,8.68,180.107-136.708
	S466.417,700.924,413.253,701.889z"/>
<path fill="#FACF5E" d="M5443.163,556.768c0-49.826-40.392-90.218-90.218-90.218h-962.327c-49.826,0-90.218,40.392-90.218,90.218
	v766.009c0,49.826,40.392,90.218,90.218,90.218h962.327c49.826,0,90.218-40.392,90.218-90.218V556.768z"/>
<path fill="#E78625" d="M5443.163,1322.777V870.448c-223.989-48.697-586.399,253.042-879.199,241.248
	c-106.325-4.283-193.409-30.611-263.565-65.533v276.613c0,49.826,40.392,90.218,90.218,90.218h962.327
	C5402.77,1412.995,5443.163,1372.603,5443.163,1322.777z"/>
<path fill="#474747" d="M4866.281,682.591h-130.156l2.018,50.448l-135.2,452.49l84.752,5.524l48.43-136.209l145.29-1.453
	l46.413,137.663l90.806-3.984L4866.281,682.591z M4754.287,969.134l56.501-211.881l54.483,211.881H4754.287z"/>
<rect x="5089.26" y="844.739" fill="#474747" width="96.86" height="346.314"/>
<path fill="#474747" d="M5199.986,733.893c0-33.909-27.489-61.398-61.398-61.398l0,0c-33.909,0-61.398,27.489-61.398,61.398l0,0
	c0,33.909,27.489,61.398,61.398,61.398l0,0C5172.498,795.292,5199.986,767.803,5199.986,733.893L5199.986,733.893z"/>
</svg>
