<?xml version="1.0" encoding="utf-8"?>
<!-- Generator: Adobe Illustrator 17.0.0, SVG Export Plug-In . SVG Version: 6.00 Build 0)  -->
<!DOCTYPE svg PUBLIC "-//W3C//DTD SVG 1.1//EN" "http://www.w3.org/Graphics/SVG/1.1/DTD/svg11.dtd">
<svg version="1.1" id="Layer_1" xmlns="http://www.w3.org/2000/svg" xmlns:xlink="http://www.w3.org/1999/xlink" x="0px" y="0px"
	 width="712.655px" height="1049.66px" viewBox="0 0 712.655 1049.66" enable-background="new 0 0 712.655 1049.66"
	 xml:space="preserve">
<ellipse fill="#272727" cx="273.352" cy="333.365" rx="164.202" ry="205.576"/>
<path fill="#90898A" d="M325.917,138.614c-64.895,27.448-111.637,104.24-111.637,194.751s46.741,167.303,111.637,194.751
	c64.895-27.448,111.637-104.24,111.637-194.751S390.812,166.062,325.917,138.614z"/>
<path fill="#F9A469" d="M366.89,451.094c0,0,33.913,96.652,67.826,149.218c33.913,52.566,140.739,122.087,154.304,215.348
	s22.044,234-45.783,234s-117-49.174-154.305-100.044c-93.108-126.966-161.801-580.179-144.13-615.522
	c18.652-37.304,64.435-118.696,91.565-118.696s54.261,13.565,54.261,13.565S329.585,279.833,366.89,451.094z"/>
<path fill="#F7945A" d="M589.02,815.66c-13.565-93.261-120.392-162.783-154.305-215.348
	c-28.044-43.469-56.068-117.033-64.935-141.211c1.873,63.782,9.288,144.026,33.283,180.29
	c42.956,64.921,128.87,153.095,139.044,183.617c7.191,21.573,34.691,91.745,46.618,185.304
	C604.71,959.517,597.978,877.243,589.02,815.66z"/>
<ellipse fill="#272727" cx="530.541" cy="347.272" rx="182.114" ry="217.996"/>
<path fill="#90898A" d="M598.367,144.963c-66.976,32.206-114.288,110.62-114.288,202.31s47.312,170.103,114.288,202.309
	c66.976-32.206,114.288-110.62,114.288-202.309S665.343,177.169,598.367,144.963z"/>
<ellipse fill="#1D1D1D" cx="618.779" cy="339.87" rx="32.14" ry="55.833"/>
</svg>
