<?xml version="1.0" encoding="utf-8"?>
<!-- Generator: Adobe Illustrator 17.0.0, SVG Export Plug-In . SVG Version: 6.00 Build 0)  -->
<!DOCTYPE svg PUBLIC "-//W3C//DTD SVG 1.1//EN" "http://www.w3.org/Graphics/SVG/1.1/DTD/svg11.dtd">
<svg version="1.1" id="Layer_1" xmlns="http://www.w3.org/2000/svg" xmlns:xlink="http://www.w3.org/1999/xlink" x="0px" y="0px"
	 width="1645.187px" height="1946.395px" viewBox="-311.972 0 1645.187 1946.395"
	 enable-background="new -311.972 0 1645.187 1946.395" xml:space="preserve">
<path fill="#F9A469" d="M398.884,813.713c0,0-37.393,32.217-34.805,93.261s25.039,91.565,128.27,111.913
	s229.414,5.087,298.584-84.783c62.308-80.955,84.996-108.238,101.28-116.575c-27.228-14.347-84.18-44.73-116.887-64.86
	c-44.081-27.13-28.411-159.87-28.411-159.87s-239.508,56.435-234.746,72.12c4.762,15.685-33.589,111.489-68.817,131.975
	c-14.973,8.707-31.265,13.043-45.06,15.159C398.497,812.601,398.722,813.13,398.884,813.713z"/>
<path fill="#F7945A" d="M849.336,859.863c-102.517-54.598-265.626-5.454-265.626-5.454l75.673-165.581l-146.877-25.611
	c-0.366,0.609-0.497,1.18-0.338,1.703c4.762,15.685-33.589,111.489-68.817,131.975c-14.973,8.707-31.265,13.043-45.06,15.159
	c0.206,0.546,0.431,1.076,0.593,1.659c0,0-11.429,9.869-21.214,28.996c2.919,0.362,6.005,0.693,9.344,0.975
	c60.478,5.101,105.335,154.856,105.335,154.856c13.769-94.957,162.579-103.435,231.226-117c39.119-7.73,71.604,6.564,92.329,20.292
	C829.165,884.815,840.132,871.008,849.336,859.863z"/>
<path fill="#2A2823" d="M320.884,803.539c0,0,69.522-20.348,78,10.174c0,0-37.393,32.217-34.805,93.261
	s25.039,91.565,128.27,111.913s229.414,5.087,298.584-84.783s89.518-113.609,106.474-118.696s42.391,5.087,42.391,5.087
	s-22.044,88.174-50.87,123.783s-82.934,171.261-74.532,220.435c8.402,49.174,76.228,133.957,76.228,152.609
	c0,18.652-120.392,139.044-135.652,245.87c-15.261,106.826,62.739,320.479,62.739,320.479s0,55.957-206.87,61.044
	s-359.479-33.913-366.262-62.739c-6.783-28.826,20.348-94.957,20.348-94.957s-3.873-153.914-21.436-207.523
	c-17.564-53.608-53.172-224.87-53.172-307.957C190.319,1188.453,212.362,890.018,320.884,803.539z"/>
<path fill="#F9A469" d="M921.146,827.279c0,0,188.218,40.696,225.522,149.218s57.652,178.044,79.696,198.392
	c22.044,20.348,108.522,174.652,106.826,227.218c-7.094,219.928-309.471,408.282-496.827,491.74c0,0-63.305,45.555-77.435,51.321
	c-14.13,5.766-101.739-8.929-104.565-41.147c-2.826-32.217,0-19.783,0-19.783s-18.087,1.13-22.609-22.609
	c-4.522-23.739,0-33.348,0-33.348s-10.174-11.87-7.913-26c2.261-14.13,3.391-16.957,3.391-16.957s-26-42.957,6.217-54.826
	c32.217-11.87,79.696-12.435,79.696-12.435s-16.391-19.783,0.565-27.13c16.957-7.348,37.304-12.435,53.696-5.087
	c16.391,7.348,60.478,45.217,92.131,46.348c31.652,1.13,84.218-54.261,98.913-87.609c0,0,109.37-202.631,153.457-216.196
	c0,0-110.218-100.044-150.913-223.826c0,0-11.022,100.891-125.478,142.435c-53.274,19.337-210.816-59.278,33.913-424.762
	L921.146,827.279z"/>
<path fill="#F7945A" d="M1102.989,1419.841c5.603,5.527,8.919,8.548,8.919,8.548c-44.087,13.565-153.457,216.196-153.457,216.196
	c-14.696,33.348-67.261,88.739-98.913,87.609c-31.652-1.13-75.739-39-92.13-46.348c-7.274-3.26-15.327-4.064-23.516-3.317
	c-3.953,75.1,111.619,77.919,167.082,60.404c64.435-20.348,191.609-223.827,240.783-290.99
	c49.174-67.163,98.348-4.054,76.304-27.794C1212.46,1407.349,1142.55,1414.326,1102.989,1419.841z"/>
<path fill="#F9A469" d="M190.319,1271.54c0-80.831,20.875-365.446,121.927-460.467c-21.522,2.194-52.643,8.087-71.058,24.684
	c-93.715,84.463-76.68,194.02-110.03,253.674c-19.443,34.779-190.674,352.763-84.18,493.274
	c21.467,28.324,43.857,35.217,80.625,36.52c45.758,1.621,62.715-69.597,62.715-69.597l33.073-48.507
	C207.16,1427.523,190.319,1328.681,190.319,1271.54z"/>
<path fill="#F7945A" d="M190.319,1549.628l33.073-48.507c-15.054-68.258-30.622-158.207-32.803-216.487
	c-42.197,66.405-87.004,161.47-77.612,298.07c9.603,6.167,13.842-0.413,25.499,0
	C184.232,1584.325,190.319,1549.628,190.319,1549.628z"/>
<path fill="#F7945A" d="M830.052,389.333c-10.486-2.404-27.626,5.581-41.712,19.239c-0.077,28.57-0.086,61.254,0.198,73.57
	c0.194,8.308,0.215,24.312,0.172,41.456c4.249,3.215,8.843,5.116,13.69,5.116C848.809,528.714,845.82,392.955,830.052,389.333z"/>
<path fill="#F7945A" d="M411.266,404.611c-13.118-11.131-27.888-17.434-37.29-15.277c-12.997,2.983-15.828,139.381,27.647,139.381
	c3.359,0,6.551-1.12,9.643-2.71C411.266,477.548,411.266,437.398,411.266,404.611z"/>
<path fill="#414142" d="M412.072,483.114c0-504.404,0,301.773,0-214.209c0,0,96.68-26.669,194.675-26.669
	s184.258,41.29,184.258,41.29l-0.194,76.525c0,0-0.258,46.316-0.241,83.185c31.699-130.604,83.161-356.679-11.505-355.15
	c0,0-24.955-42.118-140.387-57.256C571.513,22.022,556.649,0,556.649,0l22.572,28.628c0,0-72.877-14.314-81.307-23.673
	l35.613,37.987c0,0-113.927,12.662-145.325-1.101l88.069,33.032c0,0-100.748,26.976-109.006,18.168l40.74,32.482
	c0,0-40.551,34.133-43.673,34.133s23.871,3.303,23.871,3.303C372.976,166.398,388.52,390.095,412.072,483.114z"/>
<path fill="#F9A469" d="M790.739,359.372c0,0-0.551,99.097,0,122.77s-0.245,109.006-0.245,109.006L674.025,736.49L546.3,739.793
	L410.535,619.81c0-1016.888,0,662.484,0-351.584c0,0,96.677-26.669,194.672-26.669s185.725,41.29,185.725,41.29L790.739,359.372z"/>
<path fill="#F7945A" d="M443.351,606.058c-5.474-19.553-1.219-286.406-0.204-345.598c-20.293,4.369-32.612,7.767-32.612,7.767
	c0,3.452,0,6.859,0,10.248c0-1.21,0,80.556,0,329.497c0,3.905,0,7.851,0,11.839l130.423,115.263
	C505.145,692.498,447.729,621.693,443.351,606.058z"/>
<path fill="#F7945A" d="M790.739,482.142c-0.55-23.673,0-122.77,0-122.77l0.194-76.525c0,0-12.428-5.848-33.15-13.143
	c1.571,74.108,6.139,314.368-0.475,323.095c-4.3,5.675-31.125,59.939-54.412,107.661l87.598-109.313
	C790.494,591.148,791.289,505.815,790.739,482.142z"/>
<path fill="#2A1214" d="M437.873,363.475c0,0-2.823,15.953,10.48,13.139s20.764-8.903,35.784-3.491
	c15.02,5.412,48.37,37.911,57.982,43.715s30.418-4.839,30.418-4.839c-7.541-5.058-51.869-44.439-85.018-56.383
	C454.372,343.671,437.873,363.475,437.873,363.475z"/>
<path fill="#A06B43" d="M639.893,553.712c12.662,9.359-22.784,23.009-32.694,23.009c-28.823,0-42.621-8.924-37.224-20.256
	c5.505-11.561,18.407-0.628,33.471,12.64C613.317,577.797,624.138,542.066,639.893,553.712z"/>
<path fill="#F7945A" d="M651.11,547.656c-7.905-3.441-20.826-0.591-28.039,8.852c4.856-4.26,10.92-7.157,16.822-2.796
	c12.662,9.359-16.183,19.342-26.093,19.342s-18.091,0.978-18.091,0.978s-33.321-1.631-25.734-17.567
	c2.899-6.084,7.88-5.849,14.107-2.413c-1.626-3.51-2.882-7.366-3.097-11.901c-1.101-23.123,0-39.639,0-39.639
	s-32.482,42.391-33.583,51.751c-1.101,9.359,2.753,33.032,2.753,33.032s32.344,5.505,48.378,5.505s50.718-22.555,56.774-26.968
	S661.227,552.06,651.11,547.656z"/>
<g>
	<g>
		<g>
			<path fill="#414142" d="M452.297,407.604c0.024,0.085,0.774-0.004,2.175-0.249c0.698-0.131,1.56-0.293,2.578-0.483
				c1.028-0.129,2.212-0.277,3.545-0.444c5.312-0.571,13.182-0.856,22.507,1.361c4.651,1.081,9.644,2.717,14.773,5.021
				c5.131,2.298,10.392,5.251,15.636,8.802c5.248,3.545,10.481,7.683,15.567,12.352c5.091,4.657,10.07,9.824,14.718,15.464
				c0.821,0.996,1.636,2.02,2.381,3.017c0.62-0.584,1.232-1.16,1.845-1.735c-11.117-9.162-22.827-16.567-34.351-21.375
				c-11.501-4.861-22.714-7.034-32.113-7.231c-9.424-0.235-16.964,1.367-21.918,2.997c-4.978,1.641-7.431,3.258-7.341,3.398
				c0.08,0.159,2.641-1.138,7.619-2.465c4.955-1.318,12.377-2.614,21.574-2.157c9.176,0.42,20.063,2.72,31.269,7.598
				c11.227,4.828,22.678,12.157,33.631,21.198l8.191,6.761l-6.347-8.497c-0.81-1.084-1.621-2.102-2.466-3.129
				c-4.742-5.755-9.805-10.982-15.007-15.694c-5.193-4.721-10.553-8.896-15.943-12.458c-5.385-3.567-10.803-6.517-16.093-8.785
				c-5.288-2.274-10.445-3.853-15.239-4.847c-9.617-2.045-17.678-1.467-23.028-0.582c-1.341,0.253-2.534,0.457-3.556,0.684
				c-1.007,0.287-1.86,0.531-2.551,0.728C452.979,407.264,452.274,407.519,452.297,407.604z"/>
		</g>
	</g>
</g>
<path fill="#2A1214" d="M758.809,363.475c0,0,2.823,15.953-10.48,13.139s-20.764-8.903-35.784-3.491
	c-15.02,5.412-48.37,37.911-57.982,43.715s-30.418-4.839-30.418-4.839c7.541-5.058,51.869-44.439,85.018-56.383
	C742.31,343.671,758.809,363.475,758.809,363.475z"/>
<g>
	<g>
		<g>
			<path fill="#414142" d="M744.384,407.604c0.024-0.085-0.681-0.34-2.054-0.75c-0.691-0.197-1.544-0.441-2.551-0.728
				c-1.022-0.227-2.215-0.432-3.556-0.684c-5.35-0.885-13.411-1.463-23.028,0.582c-4.794,0.994-9.95,2.572-15.239,4.847
				c-5.291,2.268-10.708,5.218-16.093,8.785c-5.39,3.562-10.749,7.737-15.943,12.458c-5.202,4.713-10.265,9.94-15.007,15.694
				c-0.845,1.027-1.657,2.045-2.466,3.129l-6.347,8.497l8.191-6.761c10.953-9.041,22.404-16.37,33.631-21.198
				c11.206-4.878,22.093-7.178,31.269-7.598c9.197-0.457,16.62,0.839,21.574,2.157c4.978,1.326,7.538,2.624,7.619,2.465
				c0.09-0.14-2.362-1.757-7.341-3.398c-4.953-1.63-12.493-3.232-21.918-2.997c-9.399,0.196-20.611,2.37-32.113,7.231
				c-11.525,4.808-23.234,12.213-34.351,21.375c0.612,0.576,1.224,1.152,1.844,1.735c0.746-0.996,1.561-2.021,2.381-3.017
				c4.647-5.64,9.626-10.808,14.718-15.464c5.085-4.669,10.319-8.807,15.567-12.352c5.244-3.55,10.505-6.504,15.636-8.802
				c5.129-2.304,10.122-3.941,14.773-5.021c9.325-2.218,17.195-1.933,22.507-1.361c1.333,0.167,2.518,0.316,3.545,0.444
				c1.017,0.191,1.879,0.352,2.578,0.483C743.61,407.6,744.361,407.689,744.384,407.604z"/>
		</g>
	</g>
</g>
<path fill="#E2E5E9" d="M526.412,626.168c0,0,27.534-16.781,79.297-17.628c51.763-0.848,72.11,21.196,72.11,21.196v39.848
	c0,0-39.09-19.5-72.11-17.804c-33.02,1.696-72.02,14.413-72.02,14.413L526.412,626.168z"/>
<path fill="#7A4038" d="M677.82,629.735c0,0-0.864-0.912-2.593-2.325c-2.662,7.115-7.076,16.417-11.82,15.89
	c-4.8-0.533,2.143,12.353,9.22,23.886c3.3,1.453,5.193,2.397,5.193,2.397L677.82,629.735L677.82,629.735z"/>
<path fill="#7A4038" d="M533.689,666.191c0,0,0.765-0.249,2.131-0.67c0.391-7.935,6.834-17.025,6.834-17.025
	s11.383-13.675-1.696-15.034c-6.338-0.659-8.623-5.338-9.311-9.985c-3.464,1.616-5.235,2.691-5.235,2.691L533.689,666.191z"/>
<circle fill="none" stroke="#FFFFFF" stroke-width="5" stroke-miterlimit="10" cx="450.974" cy="1281.538" r="131.387"/>
<g>
	<path fill="#FFFFFF" d="M353.446,1220.44c-8,13.115-13.498,28.048-15.686,44.247c-6.139,45.439,15.283,88.231,51.406,111.568
		L353.446,1220.44z"/>
	<path fill="#FFFFFF" d="M404.125,1210.471c0,0,2.949,1.175,2.179,4.955c-0.77,3.78-2.584,3.794-2.584,3.794l-16.53-2.233
		l25.413,130.059l35.89-72.058L437,1223.976l-13.375-2.584c0,0-2.406-1.361-1.959-4.667c0.447-3.306,4.076-3.333,4.076-3.333
		l63.576,8.59c4.022,0.899,3.269,9.343-3.931,8.014l-12.681-1.972l25.571,126.973l27.837-60.374c0,0,4.712-11.877,3.743-20.035
		c-0.969-8.158-14.503-36.399-14.861-45.252c-0.358-8.853,2.44-18.056,12.33-20.345c9.89-2.289,12.164-0.428,12.164-0.428
		s0.585,0.117,1.543,0.432c-17.75-22.444-43.858-38.323-74.455-42.457c-39.767-5.373-77.5,10.373-101.949,38.598L404.125,1210.471z"
		/>
	<path fill="#FFFFFF" d="M557.771,1238.018c-0.202,2.481-0.606,5.155-1.275,8.059c-7.518,32.647-18.81,51.061-18.81,51.061
		l-43.042,88.84c36.594-15.03,64.406-48.601,70.084-90.624C567.445,1275.235,564.739,1255.643,557.771,1238.018z"/>
	<path fill="#FFFFFF" d="M451.761,1289.154l-47.452,95.323c9.812,4.404,20.401,7.514,31.602,9.027
		c13.213,1.785,26.195,1.216,38.549-1.342L451.761,1289.154z"/>
</g>
<text transform="matrix(0.999 0.0444 -0.0444 0.999 300.6387 1490.1863)" fill="#FFFFFF" font-family="'Lato-Bold'" font-size="48">WORDPRESS</text>
<ellipse fill="#272727" cx="-147.77" cy="910.135" rx="164.202" ry="205.576"/>
<path fill="#90898A" d="M-95.205,715.384c-64.895,27.448-111.637,104.24-111.637,194.751s46.741,167.303,111.637,194.751
	c64.895-27.448,111.637-104.24,111.637-194.751S-30.31,742.832-95.205,715.384z"/>
<path fill="#F9A469" d="M-54.232,1027.864c0,0,33.913,96.652,67.826,149.218c33.913,52.566,140.739,122.087,154.304,215.348
	s22.044,234-45.783,234s-117-49.174-154.305-100.044c-93.108-126.966-161.801-580.179-144.13-615.522
	c18.652-37.304,64.435-118.696,91.565-118.696s54.261,13.565,54.261,13.565S-91.537,856.603-54.232,1027.864z"/>
<path fill="#F7945A" d="M167.898,1392.43c-13.565-93.261-120.392-162.783-154.305-215.348
	c-28.044-43.469-56.068-117.033-64.935-141.211c1.873,63.782,9.288,144.026,33.283,180.29
	c42.956,64.921,128.87,153.095,139.044,183.617c7.191,21.573,34.691,91.745,46.618,185.304
	C183.588,1536.287,176.856,1454.013,167.898,1392.43z"/>
<ellipse fill="#272727" cx="109.419" cy="924.042" rx="182.114" ry="217.996"/>
<path fill="#90898A" d="M177.245,721.733c-66.976,32.206-114.288,110.62-114.288,202.31s47.312,170.103,114.288,202.309
	c66.976-32.206,114.288-110.62,114.288-202.309S244.221,753.939,177.245,721.733z"/>
<ellipse fill="#1D1D1D" cx="197.657" cy="916.64" rx="32.14" ry="55.833"/>
</svg>
