<?xml version="1.0" encoding="utf-8"?>
<!-- Generator: Adobe Illustrator 17.0.0, SVG Export Plug-In . SVG Version: 6.00 Build 0)  -->
<!DOCTYPE svg PUBLIC "-//W3C//DTD SVG 1.1//EN" "http://www.w3.org/Graphics/SVG/1.1/DTD/svg11.dtd">
<svg version="1.1" id="Layer_1" xmlns="http://www.w3.org/2000/svg" xmlns:xlink="http://www.w3.org/1999/xlink" x="0px" y="0px"
	 width="2254.923px" height="323.101px" viewBox="0 0 2254.923 323.101" enable-background="new 0 0 2254.923 323.101"
	 xml:space="preserve">
<path fill="none" stroke="#ACE0F1" stroke-miterlimit="10" d="M999.863,190.929c-1.772-0.073-4.668-0.004-6.487,1.036
	c-2.765,1.58-8.031,11.06-8.295,17.774c-0.263,6.715,0.395,19.354,8.163,20.013c7.768,0.658,14.088,0,14.088,0
	s5.53,6.846,12.508,8.69c6.978,1.843,25.279,3.95,25.279,3.95s14.028,16.771,34.22,15.364c-5.641-5.965-10.596-11.363-11.838-12.073
	c-2.765-1.58-28.834-18.169-31.599-19.408c-2.765-1.239-13.43-9.031-13.825-13.771"/>
<path fill="none" stroke="#ACE0F1" stroke-miterlimit="10" d="M1122.603,229.198l66.753-1.487v-3.212
	c-18.771,0.34-55.96,0.293-71.035,0.257L1122.603,229.198z"/>
<polygon fill="#555554" points="1113,219.236 1121.221,219.236 1124.776,220.944 1124.776,219 1128.258,219 1128.258,220.944 
	1132.478,220.944 1132.478,219 1137.415,219 1137.415,220.944 1140.97,220.944 1140.97,219.236 1145.512,219.236 1145.512,221.984 
	1148.672,221.984 1148.672,219.236 1153.215,219.236 1153.215,221.984 1157.165,221.984 1157.165,219 1161.51,219 1161.51,221.984 
	1165.657,221.984 1165.657,219.236 1169.607,219.236 1169.607,221.984 1172.174,221.984 1172.174,219 1176.717,219 
	1176.717,221.984 1181.654,221.984 1181.654,219.236 1184.221,219.236 1189.356,221.984 1189.356,227.711 1122.603,229.198 "/>
<rect y="255.243" fill="#E1A36C" width="2254.923" height="67.858"/>
<path fill="#FDCC9F" d="M0.267,227.119v27.945h2254.553c0,0,0.103-27.785,0.103-27.945H0.267z"/>
<rect x="800.885" y="164.1" fill="#79CBCC" width="23.173" height="80.925"/>
<rect x="800.885" y="164.1" fill="#F47A46" width="23.173" height="11.67"/>
<rect x="800.885" y="236.598" fill="#F47A46" width="23.173" height="8.426"/>
<g>
	<rect x="830.114" y="166.027" fill="#2A6074" width="16.063" height="78.998"/>
	<rect x="830.114" y="177.877" fill="#FFD050" width="16.063" height="18.433"/>
</g>
<rect x="851.706" y="161.024" fill="#66546D" width="20.539" height="81.631"/>
<rect x="851.706" y="167.607" fill="#67C8CB" width="20.539" height="13.956"/>
<ellipse fill="#FFFFFD" cx="861.186" cy="175.222" rx="5.003" ry="4.498"/>
<rect x="851.706" y="223.959" fill="#69C6C9" width="20.539" height="12.64"/>
<rect x="883.306" y="164.1" transform="matrix(0.9514 -0.3079 0.3079 0.9514 -19.677 284.4103)" fill="#79CBCC" width="16.326" height="80.925"/>
<polygon fill="#C49549" points="876.858,185.928 891.247,230.389 906.657,224.982 892.257,180.484 "/>
<rect x="713.724" y="236.598" fill="#CE9A57" width="55.825" height="7.636"/>
<polygon fill="#FFD253" points="767.311,236.598 760.201,229.489 723.072,229.489 715.57,236.598 "/>
<rect x="736.896" y="201.839" fill="#F1714A" width="10.665" height="26.662"/>
<rect x="741.636" y="208.752" fill="#E05F3B" width="5.925" height="18.104"/>
<path fill="#F1714A" d="M783.215,121.085l-7.611,6.946c5.432,7.3,8.671,16.414,8.671,26.314c0,23.953-18.891,43.371-42.195,43.371
	c-11.43,0-21.79-4.68-29.388-12.267l-8.738,7.975c9.592,9.718,22.755,15.721,37.287,15.721c29.341,0,53.126-24.448,53.126-54.607
	C794.367,141.93,790.198,130.329,783.215,121.085z"/>
<rect x="774.288" y="112.967" transform="matrix(-0.6773 -0.7357 0.7357 -0.6773 1211.9628 779.0283)" fill="#F1714A" width="5.069" height="21.527"/>
<rect x="704.77" y="176.165" transform="matrix(-0.6773 -0.7357 0.7357 -0.6773 1048.8644 833.8898)" fill="#F1714A" width="5.069" height="21.527"/>
<circle fill="#285D72" cx="741.724" cy="155.34" r="36.251"/>
<path fill="#FFD253" d="M741.724,119.089c-1.599,0-3.169,0.115-4.713,0.315c-0.862,2.849-1.545,7.026,1.07,8.77
	c4.147,2.765,6.517,5.925,6.517,5.925l1.383-1.214c0,0,1.817,1.214,3.18,1.214c1.363,0,3.338-2.37,3.338-2.37
	s2.172,0.93,3.752,1.156c1.58,0.226,0,5.164,0,5.164s4.477,1.777,4.608,4.74c0.132,2.962-2.633,5.925-1.843,8.097
	s2.962,4.454,2.962,4.454s-1.185,3.84,0,4.828c1.185,0.987,2.37,1.238,2.37,3.384c0,2.146-2.962,2.804,2.962,2.475
	c3.122-0.173,6.902-0.909,9.78-2.737c0.573-2.56,0.885-5.217,0.885-7.95c0-5.7-1.319-11.09-3.663-15.888
	c-1.309-2.164-2.703-4.368-4.097-6.511C763.578,124.51,753.288,119.089,741.724,119.089z"/>
<path fill="#FFD253" d="M740.254,166.027c-0.987,0.132-4.74-2.304-4.016-5.003c0.724-2.699-2.107-5.003-3.094-3.226
	s-3.95,2.172-3.16,1.382s-3.95-3.752-6.517-4.542s-1.777-0.197-1.975,1.376c-0.198,1.573,0,2.574,0.79,5.01
	c0.79,2.436-0.593,0.329-1.06,1.712c-0.467,1.382,0.27,1.58-0.109,3.372c-0.379,1.792,0.379,1.368,0,1.5
	c-0.379,0.132-1.991-0.132-1.991-2.491c0-2.359-1.777-2.578-2.182-4.092c-0.405-1.514-5.125,0.527-4.92-0.856
	s-2.773-0.592-3.365-1.382s0.592-3.16,1.382-3.445s1.983,0.878,1.983,0.878s1.375-1.382,0-1.777s2.362-2.962,3.55-4.542
	s1.577,0.395,4.539,0c2.962-0.395-1.58-4.937-1.58-5.332s-2.37-0.197-2.959,1.481c-0.589,1.679-1.846,1.481-1.846,1.481v-2.962
	h-1.909c0,0,0,0-1.777,0c-0.703,0-1.961,0.465-3.227,1.025c-0.865,3.103-1.337,6.37-1.337,9.749
	c0,13.096,6.945,24.567,17.352,30.938c1.009-1.779,2.024-6.558,2.024-6.558s3.16-1.777,2.567-3.16s1.382-2.172,2.765-1.975
	c1.382,0.197-0.198,1.975,0.79,1.975c0.987,0,3.555-2.37,5.925-3.95s-4.147-1.845-4.147-1.845s-0.987-0.13-1.975-0.04
	c-0.987,0.09-3.357,0-3.357,0s3.357-2.46,7.11-2.262s4.147,0.395,5.727,0S741.241,165.895,740.254,166.027z"/>
<rect x="1413.907" y="223.905" fill="#F3974C" width="52.534" height="2.923"/>
<rect x="1426.152" y="193.545" fill="#F3974C" width="27.057" height="30.36"/>
<g>
	<rect x="1529.639" y="240.376" fill="#403E3E" width="31.204" height="5.448"/>
	<rect x="1534.774" y="176.823" fill="#403E3E" width="21.593" height="63.553"/>
</g>
<rect x="1551.627" y="162.867" fill="#D3A03E" width="15.536" height="82.957"/>
<rect x="1567.427" y="131.268" fill="#E56247" width="15.536" height="114.556"/>
<rect x="1582.963" y="159.181" fill="#98CFC3" width="8.426" height="86.643"/>
<rect x="1591.389" y="96.772" fill="#20ADE4" width="17.643" height="149.052"/>
<rect x="1608.769" y="96.772" fill="#E17526" width="17.643" height="149.052"/>
<polygon fill="#CF9E56" points="760.201,229.489 760.859,230.147 760.859,226.855 723.467,226.855 723.467,229.489 "/>
<polygon fill="#B78C40" points="741.636,229.489 760.201,229.489 760.859,230.147 760.859,226.855 741.636,226.855 "/>
<polygon fill="#EDB93C" points="741.636,236.598 767.311,236.598 760.201,229.489 741.636,229.489 "/>
<rect x="741.44" y="236.598" fill="#B78C46" width="28.108" height="7.636"/>
<rect x="1440.174" y="193.545" fill="#F07D22" width="13.035" height="30.36"/>
<rect x="1440.174" y="223.905" fill="#F07D22" width="26.267" height="2.923"/>
<ellipse fill="#D8D6D5" cx="1575.063" cy="141.365" rx="5.267" ry="6.229"/>
<rect x="1615.615" y="102.302" fill="#EEE7DF" width="5.267" height="45.292"/>
<rect x="1597.709" y="102.302" fill="#EEE7DF" width="5.793" height="32.834"/>
<path fill="#F3974C" d="M1423.923,202.778c0.792,0,1.545,0.212,2.229,0.591v-3.423c-0.715-0.218-1.463-0.345-2.238-0.345
	c-4.799,0-8.69,4.451-8.69,9.941c0,5.49,3.891,9.941,8.69,9.941c0.775,0,1.523-0.127,2.238-0.345v-2.353
	c-0.684,0.38-1.437,0.591-2.229,0.591c-3.121,0-5.652-3.268-5.652-7.299S1420.802,202.778,1423.923,202.778z"/>
<g>
	<path fill="#C1C1C0" stroke="#C1C1C0" stroke-miterlimit="10" d="M978.203,159.813c2.899,5.654,11.162,16.526,12.467,20.44
		c0.813,2.439,5.79,8.817,9.427,13.278c1.37-4.768,4.917-12.988,9.418-16.273c4.51-3.292,11.401-3.562,16.795-3.305
		c-3.232-5.205-7.432-11.447-7.952-12.4c-0.87-1.595-1.45-15.221-5.364-27.108c-3.914-11.887-13.047-17.395-25.948-16.236
		c-8.457,0.76-11.868,15.783-13.216,26.044C975.09,149.847,976.464,156.421,978.203,159.813z"/>
</g>
<path fill="#294671" d="M1214.376,274.677c0,0-74.735-43.321-86.118-48.402c-11.383-5.081-73.396-42.605-79.716-42.605
	s-7.9-0.395-7.9-0.395s-7.505-10.27-12.245-10.665s-14.22-1.359-19.749,2.678s-9.48,16.281-9.085,17.861
	c0.395,1.58,22.119,14.615,22.514,19.354c0.395,4.74,11.06,12.532,13.825,13.771c2.765,1.239,28.834,17.828,31.599,19.408
	c2.765,1.58,23.92,26.389,30.13,28.994c6.209,2.605,37.413,41.613,50.053,44.031c12.64,2.418,58.981,4.393,58.981,4.393
	L1214.376,274.677z"/>
<path fill="#294671" d="M1007.069,190.069c0,0-9.628-1.462-14.516,1.797c-7.253,4.837-15.309,33.375,0.823,35.793
	c13.956,2.093,16.59,2.619,16.59,2.619s17.379,11.01,30.546,8.69c6.519-1.149,15.273,13.166,23.963,14.746
	c8.69,1.58,20.013,1.58,20.013,1.58l-3.423-29.02l-72.941-35.367"/>
<path fill="#1B355B" d="M1202.72,309.54c-28.176,19.223-66.095-17.906-66.621-17.933c-0.527-0.027,6.057-11.033,9.743-11.56
	c3.687-0.527,34.496-1.58,43.185-1.843c6.36-0.193,18.498,0.883,24.553,1.475l0.796-5.001c0,0-4.692-2.72-11.903-6.876
	c-30.459,0.831-106.447-7.143-107.98-7.963c-1.843-0.986-18.169-12.971-26.069-20.086c-7.9-7.115-20.276-14.478-24.226-16.321
	c-3.95-1.843-6.583-5.793-6.583-5.793s1.317,5.793,0,5.793s-8.426-5.003-9.216-8.426c-0.79-3.423-7.9-13.166-16.063-16.59
	c-5.197-2.179-8.961-7.984-11.013-11.917c-1.268,3.208-1.932,5.957-1.759,6.651c0.395,1.58,22.119,14.615,22.514,19.354
	c0.395,4.74,11.06,12.532,13.825,13.771c2.765,1.239,28.834,17.828,31.599,19.408c2.765,1.58,23.92,26.389,30.13,28.994
	c6.209,2.605,37.413,41.613,50.053,44.031c12.64,2.418,58.981,4.393,58.981,4.393l2.824-17.736
	C1207.548,306.403,1205.305,307.776,1202.72,309.54z"/>
<path fill="#1B355B" d="M1079.34,257.756c-0.925-0.978-1.828-1.938-2.703-2.867c-8.533-1.839-31.122-16.579-31.122-16.579
	s-13.956-1.58-24.358-3.423c-10.401-1.843-10.006-7.373-10.006-7.373s0,0-13.298,0c-5.207,0-8.572-1.253-10.745-2.776
	c1.237,2.755,3.166,4.763,6.137,5.015c7.768,0.658,14.088,0,14.088,0s5.53,6.846,12.508,8.69c6.978,1.843,25.279,3.95,25.279,3.95
	S1059.147,259.163,1079.34,257.756z"/>
<g>
	<path fill="#585858" d="M985.081,209.739c0.263-6.715,5.53-16.195,8.295-17.774c1.82-1.04,4.715-1.109,6.487-1.036l0,0
		c0.067-0.27,0.145-0.557,0.232-0.861c-3.303-4.052-7.824-9.845-8.562-12.06c-1.185-3.555-8.69-13.43-11.323-18.564
		s-4.345-18.301-6.188-21.988c-1.843-3.687-6.978-4.477-11.455-3.16c-4.477,1.317-5.267,11.06-6.757,14.878
		c-1.491,3.818,1.228,28.966,1.491,37.324c0.263,8.359-1.317,36.407-1.317,36.407s-2.502,7.241,11.455,6.188
		c9.816-0.741,16.761-2.593,20.021-3.628C985.131,221.013,984.909,214.118,985.081,209.739z"/>
</g>
<path fill="#C1C1C0" stroke="#C1C1C0" stroke-miterlimit="10" d="M966.285,229.162c-1.726-10.167-1.327-27.771,0.1-33.379
	c1.843-7.241,0.132-27.123,0.132-27.123s-2.897-14.22-1.185-22.119c0.963-4.443,3.966-8.678,6.41-11.533
	c-2.43-1.509-5.968-1.655-9.175-0.712c-4.477,1.317-5.267,11.06-6.757,14.878c-1.491,3.818,1.228,28.966,1.491,37.324
	c0.263,8.359-1.317,36.407-1.317,36.407S953.627,229.737,966.285,229.162z"/>
<g>
	<path fill="#585858" d="M980.21,159.444c2.633,5.135,10.138,15.01,11.323,18.564c0.738,2.215,5.259,8.008,8.562,12.06
		c1.244-4.331,4.466-11.796,8.554-14.78c4.096-2.99,10.356-3.235,15.254-3.002c-2.935-4.728-6.75-10.397-7.223-11.263
		c-0.79-1.448-1.317-13.825-4.872-24.621c-3.555-10.796-11.85-15.8-23.568-14.746c-7.681,0.69-10.78,14.335-12.003,23.655
		C977.382,150.393,978.63,156.363,980.21,159.444z"/>
</g>
<path fill="#565657" d="M1194.557,323.101c0,0,30.142-172.417,54.443-175.573c15.207-1.975,65.897,0.066,91.177,0.066
	s60.434-1.931,64.648-0.552s12.77,12.928,12.77,21.091c-20.917,59.308-39.236,114.402-38.997,154.967L1194.557,323.101z"/>
<path fill="#373837" d="M1378.597,323.101c-0.239-40.565,18.08-95.659,38.997-154.967c0-1.179-0.183-2.429-0.501-3.709
	c-27.261-0.019-144.786,0.062-157.823,2.853c-12.983,2.779-39.414,127.699-45.023,155.823H1378.597z"/>
<path fill="#565657" d="M1206.666,264.458c-38.868,6.538-76.187,1.527-91.107,0.053c-10.665-1.053-21.066,54.245-21.066,54.245
	l17.906-0.263c0,0,10.665-41.21,15.8-43.712c2.251-1.097,58.087-1.097,76.548-1.066
	C1205.358,270.719,1205.998,267.626,1206.666,264.458z"/>
<path fill="#FFFCF2" d="M1398.217,226.855c-0.833,2.675-1.647,5.329-2.429,7.95l42.444,14.696l18.284-22.646H1398.217z"/>
<path fill="#343935" d="M1112.926,276.624c-5.468,1.531-12.843,31.855-15.185,42.084l14.658-0.216c0,0,10.665-41.21,15.8-43.712
	c0.014-0.007,0.042-0.013,0.06-0.02C1123.74,274.39,1117.657,275.299,1112.926,276.624z"/>
<path fill="#EFEEEA" d="M1440.294,246.948l-42.612-18.357c-0.645,2.087-1.281,4.163-1.894,6.215l42.444,14.696L1440.294,246.948z"/>
<g>
	<g>
		<path fill="#F9A469" d="M1115.559,264.511c14.92,1.474,52.239,6.485,91.107-0.053c0,0.003-0.001,0.005-0.002,0.008
			c2.278-10.807,4.878-22.49,7.712-34.15c-0.011,0.045-0.022,0.089-0.033,0.134l-26.052-4.175
			c-0.738,4.458-2.102,12.748-2.293,14.273c0,0-56.226-0.833-74.39,6.056c-18.024,6.837-14.743,32.704-11.192,46.798
			C1104.406,279.014,1109.946,263.956,1115.559,264.511z"/>
	</g>
</g>
<path fill="#F79359" d="M1196.93,227.659c-2.65,7.455-7.338,21.009-7.574,24.212c-0.297,4.034-61.344,2.725-74.054,12.636
	c0.086,0.001,0.171-0.005,0.256,0.003c14.92,1.474,52.239,6.485,91.107-0.053c0,0.003-0.001,0.005-0.002,0.008
	c2.278-10.807,4.878-22.49,7.712-34.15c-0.011,0.045-0.022,0.089-0.033,0.134L1196.93,227.659z"/>
<path fill="#292724" d="M1249,147.528c15.207-1.975,65.897,0.066,91.177,0.066c11.684,0,25.476-0.412,37.349-0.72
	c-3.391-5.564-12.456-19.346-19.18-19.556c-8.427-0.263-23.963-6.056-25.543-7.11c-1.58-1.053-7.11,8.426-27.649,7.9
	c-20.539-0.527-33.969-9.48-33.969-9.48s-39.235,7.9-51.984,19.357c-24.753,26.859-29.542,53.721-33.861,87.817l29.003,4.648
	C1224.257,189.634,1237.048,149.081,1249,147.528z"/>
<path fill="#2D2B27" d="M1340.176,147.594c11.684,0,25.476-0.412,37.349-0.72c-3.391-5.564-12.456-19.346-19.18-19.556
	c-8.427-0.263-23.963-6.056-25.543-7.11c-1.58-1.053-7.11,8.426-27.649,7.9c-9.339-0.239-17.201-2.221-23.006-4.311
	c-11.412,4.066-37.292,13.243-50.198,17.478c-15.045,4.937-31.138,72.121-34.418,86.481l16.812,2.694
	c9.914-40.816,22.705-81.369,34.656-82.922C1264.207,145.553,1314.897,147.594,1340.176,147.594z"/>
<path fill="#F9A469" d="M1247.222,56.385c0,5.332,3.95,6.419,3.95,6.419s0.58,11.523,1.58,19.947
	c1.382,11.652,10.665,24.687,10.665,24.687h10.27c0,0-0.122,8.284-0.94,12.126c4.088,2.306,15.965,8.124,32.408,8.545
	c16.674,0.428,23.456-5.739,26.263-7.512c-4.125-3.228-10.268-9.745-10.53-20.072c-0.618-24.399,19.42-33.543,15.8-65.766
	c-1.84-16.371-6.912-23.699-21.922-23.304c0,0-3.752-7.9-11.85-8.097c-8.097-0.197-23.502,4.542-30.414,3.16
	C1265.589,5.135,1252.949,0,1252.949,0s-9.677,11.257-10.27,18.959c-0.592,7.702,1.185,15.602,7.307,21.922
	C1249.987,40.881,1247.222,51.052,1247.222,56.385z"/>
<path fill="#1F1E1E" d="M1320.888,99.224c0.114-23.427,19.354-32.826,15.799-64.465c-1.84-16.371-6.912-23.699-21.922-23.304
	c0,0-3.752-7.9-11.85-8.097c-8.097-0.197-23.502,4.542-30.414,3.16C1265.589,5.135,1252.949,0,1252.949,0
	s-9.677,11.257-10.27,18.959c-0.542,7.039,0.908,14.239,5.833,20.252c0.361,0.397,0.729,0.82,1.1,1.26
	c0.127,0.136,0.244,0.276,0.374,0.41c0,0-0.003,0.011-0.007,0.027c5.092,6.185,10.777,17.112,11.067,30.585
	c1.733,3.034,0.265-10.006,2.633-10.006c0.395,0,4.082,0.132,6.712,2.578c2.63,2.446,0.266,12.432,0.003,17.435
	c-0.263,5.003,13.222,19.513,20.671,21.558c4.444,1.22,14.878,0.43,22.778-0.624C1317.088,102.001,1319.343,100.657,1320.888,99.224
	z"/>
<path fill="#0B0A0A" d="M1314.765,11.455c0,0-3.752-7.9-11.85-8.097c-8.097-0.197-23.502,4.542-30.414,3.16
	C1265.589,5.135,1252.949,0,1252.949,0s-1.327,1.545-3.028,3.879c1.791,5.274,5.532,11.64,13.363,15.212
	c15.01,6.846,19.443,10.533,18.148,17.116c-1.093,5.556-8.985,37.935-4.125,56.61c4.36,4.725,9.877,9.175,13.758,10.24
	c4.444,1.22,14.878,0.43,22.778-0.624c3.244-0.433,5.499-1.777,7.045-3.21c0.114-23.427,19.354-32.826,15.799-64.465
	C1334.848,18.388,1329.775,11.06,1314.765,11.455z"/>
<path fill="#F79359" d="M1320.888,100.525c0.261,10.327,6.404,16.843,10.53,20.072c-2.808,1.773-9.59,7.939-26.263,7.512
	c-11.155-0.286-20.205-3.055-26.151-5.527c5.343-10.006,6.047-22.765,6.047-22.765s4.547,5.624,17.865,3.858
	S1320.888,100.525,1320.888,100.525z"/>
</svg>
