<?xml version="1.0" encoding="utf-8"?>
<!-- Generator: Adobe Illustrator 17.0.0, SVG Export Plug-In . SVG Version: 6.00 Build 0)  -->
<!DOCTYPE svg PUBLIC "-//W3C//DTD SVG 1.1//EN" "http://www.w3.org/Graphics/SVG/1.1/DTD/svg11.dtd">
<svg version="1.1" id="Layer_1" xmlns="http://www.w3.org/2000/svg" xmlns:xlink="http://www.w3.org/1999/xlink" x="0px" y="0px"
	 width="1971.9px" height="3050px" viewBox="0 0 1971.9 3050" enable-background="new 0 0 1971.9 3050" xml:space="preserve">
<g id="Layer_3" display="none">
	
		<image display="inline" overflow="visible" enable-background="new    " width="450" height="470" xlink:href="../../../illlustrator/stock-vector-cartoon-illustration-of-a-handsome-young-man-with-various-hair-style-and-beard-158250440.jpg"  transform="matrix(0.24 0 0 0.24 970 404.3499)">
	</image>
</g>
<g id="Layer_10" display="none">
	
		<image display="inline" overflow="visible" enable-background="new    " width="893" height="674" xlink:href="../../../illlustrator/webDesignersvsWebDevelopers.jpg"  transform="matrix(1 0 0 1 1353.6084 -196.9394)">
	</image>
	
		<image display="inline" overflow="visible" enable-background="new    " width="893" height="674" xlink:href="../../../illlustrator/webDesignersvsWebDevelopers.jpg"  transform="matrix(-5.6134 0 0 5.6134 4444.6401 -861.8745)">
	</image>
</g>
<g id="Layer_13" display="none">
	
		<image display="inline" overflow="visible" enable-background="new    " width="893" height="674" xlink:href="../../../illlustrator/webDesignersvsWebDevelopers.jpg"  transform="matrix(1 0 0 1 1070 881.3499)">
	</image>
</g>
<g id="build">
	<path fill="#F9A468" d="M812.4,565.7C841.2,699,805,718,740.2,748.3c0,0,42.7,91.1,174.6,88.6s180.4-82.4,180.4-82.4
		c0-7.5-119.5-15.5-83-198.3L812.4,565.7z"/>
	<path fill="#F79459" d="M1005.4,631c-1-21,0.8-45.7,6.6-74.8l-199.7,9.5c13.9,64.3,12.7,102,0.4,127.2
		C861.5,687,941.5,671.5,1005.4,631z"/>
</g>
<g id="shadow" display="none">
	<ellipse display="inline" fill="#EDEDED" cx="930.8" cy="2888.4" rx="717.1" ry="161.6"/>
</g>
<g id="ears">
	<path fill="#F79459" d="M1064.8,408c-7.1-1.6-18.8,3.8-28.4,13.1c-0.1,19.5-0.1,41.8,0.1,50.2c0.1,5.7,0.1,16.6,0.1,28.3
		c2.9,2.2,6,3.5,9.3,3.5C1077.6,503,1075.5,410.4,1064.8,408z"/>
	<path fill="#F79459" d="M779.3,418.4c-8.9-7.6-19-11.9-25.4-10.4c-8.9,2-10.8,95,18.8,95c2.3,0,4.5-0.8,6.6-1.8
		C779.3,468.1,779.3,440.7,779.3,418.4z"/>
</g>
<g id="hair">
	<path fill="#414042" d="M779.8,471.9c0-343.9,0,205.7,0-146c0,0,65.9-18.2,132.7-18.2s125.6,28.1,125.6,28.1L1038,388
		c0,0-0.2,31.6-0.2,56.7c21.6-89,56.7-243.2-7.8-242.1c0,0-17-28.7-95.7-39c-45.8-6-55.9-21-55.9-21l15.4,19.5
		c0,0-49.7-9.8-55.4-16.1l24.3,25.9c0,0-77.7,8.6-99.1-0.8l60,22.5c0,0-68.7,18.4-74.3,12.4l27.8,22.1c0,0-27.6,23.3-29.8,23.3
		c-2.1,0,16.3,2.3,16.3,2.3C753.2,256,763.8,408.5,779.8,471.9z"/>
</g>
<g id="face">
	<path fill="#F9A468" d="M1038,387.5c0,0-0.4,67.6,0,83.7s-0.2,74.3-0.2,74.3l-79.4,99.1l-87.1,2.3l-92.6-81.8
		c0-693.2,0,451.6,0-239.7c0,0,65.9-18.2,132.7-18.2s126.6,28.1,126.6,28.1L1038,387.5z"/>
	<path fill="#F79459" d="M801.2,555.7c-3.7-13.3-0.8-195.3-0.1-235.6c-13.8,3-22.2,5.3-22.2,5.3c0,2.4,0,4.7,0,7
		c0-0.8,0,54.9,0,224.6c0,2.7,0,5.4,0,8.1l88.9,78.6C843.3,614.6,804.1,566.4,801.2,555.7z"/>
	<path fill="#F79459" d="M1038,471.2c-0.4-16.1,0-83.7,0-83.7l0.1-52.2c0,0-8.5-4-22.6-9c1.1,50.5,4.2,214.3-0.3,220.3
		c-2.9,3.9-21.2,40.9-37.1,73.4l59.7-74.5C1037.8,545.6,1038.4,487.4,1038,471.2z"/>
</g>
<g id="eyes">
	<path fill="#2A1314" d="M1027.5,407.1c0,0-1.9,10.9-9.8,6c-7.9-4.9-11.3-10.5-22.1-10.5s-39.8,13.1-47.3,14.6s-18.4-10.1-18.4-10.1
		c6-1.5,43.5-16.5,67.6-16.5S1027.5,407.1,1027.5,407.1z"/>
	<path fill="#2A1314" d="M785.8,407.1c0,0,1.9,10.9,9.8,6c7.9-4.9,11.3-10.5,22.1-10.5c10.9,0,39.8,13.1,47.3,14.6
		s18.4-10.1,18.4-10.1c-6-1.5-43.5-16.5-67.6-16.5S785.8,407.1,785.8,407.1z"/>
</g>
<g id="nose">
	<path fill="#A06A42" d="M935.1,520c8.6,6.4-15.5,15.7-22.3,15.7c-19.6,0-29.1-6.1-25.4-13.8c3.8-7.9,12.5-0.4,22.8,8.6
		C917,536.5,924.4,512.1,935.1,520z"/>
	<path fill="#F79459" d="M942.8,515.9c-5.4-2.3-14.2-0.4-19.1,6c3.3-2.9,7.4-4.9,11.5-1.9c8.6,6.4-11,13.2-17.8,13.2
		s-12.3,0.7-12.3,0.7s-22.7-1.1-17.5-12c2-4.1,5.4-4,9.6-1.6c-1.1-2.4-2-5-2.1-8.1c-0.8-15.8,0-27,0-27s-22.1,28.9-22.9,35.3
		s1.9,22.5,1.9,22.5s22,3.8,33,3.8c10.9,0,34.6-15.4,38.7-18.4C949.8,525.3,949.7,518.9,942.8,515.9z"/>
</g>
<g id="mouth">
	<path fill="#E4794D" d="M863.1,574.8c14.7-3.8,32.3-25.1,49-12c23.6-15.5,36.3,11.6,47.1,9.8C959.2,572.6,910.2,586.8,863.1,574.8z
		"/>
	<path fill="#E4794D" stroke="#E3784C" stroke-width="0.25" stroke-miterlimit="10" d="M863.1,574.8c0,0,15.4,21.1,49,21.1
		s46.4-22.9,46.4-22.9S910.2,586.8,863.1,574.8z"/>
	<path fill="#995030" d="M953.7,573.9c-15.5,3.7-74.5,3.9-85.9,1.9C900.1,583,937.5,578.3,953.7,573.9z"/>
</g>
<g id="Layer_4" display="none">
	<path display="inline" fill="none" stroke="#0098A9" stroke-width="0.1" stroke-miterlimit="10" d="M1064.7,454.8
		c0,0,0,0.5-0.3,0.3s-0.5-0.4-0.9-0.4s-1.7,0.5-2,0.6s-0.8-0.4-0.8-0.4c0.3-0.1,1.8-0.7,2.8-0.7S1064.8,454.8,1064.7,454.8"/>
	<path display="inline" fill="none" stroke="#0098A9" stroke-width="0.1" stroke-miterlimit="10" d="M1061.1,456
		c0,0,0.8-0.3,1.6-0.4s1.4,0.1,1.4,0.1s-0.1,1-1.1,1C1062,456.8,1061.6,457.1,1061.1,456z"/>
	<path display="inline" fill="none" stroke="#0098A9" stroke-width="0.1" stroke-miterlimit="10" d="M1062.8,455.8
		c0.5,0,1.1,0,1.4,0v-0.1c0,0-0.6-0.2-1.4-0.1c-0.6,0.1-1.2,0.2-1.5,0.3C1061.7,455.9,1062.3,455.8,1062.8,455.8z"/>
	<path display="inline" fill="none" stroke="#0098A9" stroke-width="0.1" stroke-miterlimit="10" d="M1062.8,455.6
		c-0.2,0-0.3,0-0.5,0.1c0,0.1-0.1,0.2-0.1,0.3c0,0.3,0.3,0.5,0.6,0.5s0.6-0.2,0.6-0.5c0-0.1-0.1-0.3-0.1-0.4
		C1063.1,455.6,1062.9,455.6,1062.8,455.6z"/>
	<path display="inline" fill="none" stroke="#0098A9" stroke-width="0.1" stroke-miterlimit="10" d="M1054.8,454.8
		c0,0,0,0.5,0.3,0.3s0.5-0.4,0.9-0.4s1.7,0.5,2,0.6s0.8-0.4,0.8-0.4c-0.3-0.1-1.8-0.7-2.8-0.7S1054.8,454.8,1054.8,454.8"/>
	<path display="inline" fill="none" stroke="#0098A9" stroke-width="0.1" stroke-miterlimit="10" d="M1058.4,456
		c0,0-0.8-0.3-1.6-0.4s-1.4,0.1-1.4,0.1s0.1,1,1.1,1C1057.5,456.8,1058,457.1,1058.4,456z"/>
	<path display="inline" fill="none" stroke="#0098A9" stroke-width="0.1" stroke-miterlimit="10" d="M1056.8,455.8
		c-0.5,0-1.1,0-1.4,0v-0.1c0,0,0.6-0.2,1.4-0.1c0.6,0.1,1.2,0.2,1.5,0.3C1057.8,455.9,1057.2,455.8,1056.8,455.8z"/>
	<path display="inline" fill="none" stroke="#0098A9" stroke-width="0.1" stroke-miterlimit="10" d="M1056.8,455.6
		c0.2,0,0.3,0,0.5,0.1c0,0.1,0.1,0.2,0.1,0.3c0,0.3-0.3,0.5-0.6,0.5s-0.6-0.2-0.6-0.5c0-0.1,0.1-0.3,0.1-0.4
		C1056.5,455.6,1056.6,455.6,1056.8,455.6z"/>
	<path display="inline" fill="none" stroke="#0098A9" stroke-width="0.1" stroke-miterlimit="10" d="M1065.2,454c0,0,0,2.8,0,3.5
		s0,3.1,0,3.1l-3.3,4.1l-3.6,0.1l-3.9-3.4c0-28.9,0,18.8,0-10c0,0,2.7-0.8,5.5-0.8s5.3,1.2,5.3,1.2V454z"/>
	<path display="inline" fill="none" stroke="#0098A9" stroke-width="0.1" stroke-miterlimit="10" d="M1066.4,454.9
		c-0.3-0.1-0.8,0.2-1.2,0.5c0,0.8,0,1.7,0,2.1c0,0.2,0,0.7,0,1.2c0.1,0.1,0.3,0.1,0.4,0.1C1066.9,458.8,1066.8,455,1066.4,454.9z"/>
	<path display="inline" fill="none" stroke="#0098A9" stroke-width="0.1" stroke-miterlimit="10" d="M1054.4,455.3
		c-0.4-0.3-0.8-0.5-1.1-0.4c-0.4,0.1-0.5,4,0.8,4c0.1,0,0.2,0,0.3-0.1C1054.4,457.4,1054.4,456.2,1054.4,455.3z"/>
	<path display="inline" fill="none" stroke="#0098A9" stroke-width="0.1" stroke-miterlimit="10" d="M1054.4,457.5
		c0-4.2,0-5.8,0-5.8c0-0.1,0-0.2,0-0.3c0,0,2.7-0.8,5.5-0.8s5.3,1.2,5.3,1.2v2.2c0,0,0,1.3,0,2.4c0.9-3.7,2.3-10.1-0.4-10.1
		c0,0-0.7-1.2-4-1.6c-1.9-0.3-2.3-0.9-2.3-0.9l0.6,0.8c0,0-2.1-0.4-2.3-0.7l1,1.1c0,0-3.2,0.4-4.1,0l2.5,0.9c0,0-2.9,0.8-3.1,0.5
		l1.2,0.9l-1.2,1l0.7,0.1C1053.3,448.5,1053.7,454.9,1054.4,457.5z"/>
	<path display="inline" fill="none" stroke="#0098A9" stroke-width="0.1" stroke-miterlimit="10" d="M1060.2,459.9
		c0,0,0.4-0.7,0.7-0.4s-0.4,0.8-0.7,0.8s-0.5,0-0.5,0s-1-0.2-0.8-0.7c0.2-0.3,0.5,0,0.9,0.4L1060.2,459.9z"/>
	<path display="inline" fill="none" stroke="#0098A9" stroke-width="0.1" stroke-miterlimit="10" d="M1061.3,459.3
		c-0.2-0.1-0.6,0-0.8,0.3c0.1-0.1,0.3-0.2,0.5-0.1c0.4,0.3-0.4,0.8-0.7,0.8s-0.5,0-0.5,0s-1-0.2-0.8-0.7c0.1-0.2,0.2-0.2,0.4-0.1
		c0-0.1-0.1-0.2-0.1-0.3c0-0.7,0-1.1,0-1.1s-0.9,1.2-1,1.5s0.1,0.9,0.1,0.9s0.9,0.2,1.4,0.2s1.4-0.6,1.6-0.8
		S1061.6,459.5,1061.3,459.3z"/>
	<path display="inline" fill="none" stroke="#0098A9" stroke-width="0.1" stroke-miterlimit="10" d="M1054.4,451.4
		c0,0.1,0,0.2,0,0.3c0,0,0,2.4,0,9.4c0,0.1,0,0.2,0,0.3l1.8,1.6c-0.4-0.9-0.7-1.8-0.7-1.8s-0.4-2-0.4-4.1c0-1.7,0.4-4.7,0.5-5.8
		C1054.9,451.3,1054.4,451.4,1054.4,451.4z"/>
	<path display="inline" fill="none" stroke="#0098A9" stroke-width="0.1" stroke-miterlimit="10" d="M1063.8,462.3l1.4-1.8
		c0,0,0-2.4,0-3.1s0-3.5,0-3.5v-2.2c0,0-0.4-0.2-1.1-0.4c0.1,1.1,0.4,3.7,0.4,4.5c0,1,0.1,2.8,0,3.7
		C1064.3,460.1,1064,461.4,1063.8,462.3z"/>
	<path display="inline" fill="none" stroke="#0098A9" stroke-width="0.1" stroke-miterlimit="10" d="M1058,461.7
		c0.6-0.2,1.3-1,2-0.4c0,0,0.4-0.3,0.7-0.2s1.3,0.6,1.3,0.6S1059.9,462.2,1058,461.7z"/>
	<path display="inline" fill="none" stroke="#0098A9" stroke-width="0.1" stroke-miterlimit="10" d="M1058,461.8c0,0,0.6,0.9,2,0.9
		s2-1,2-1S1059.9,462.3,1058,461.8z"/>
</g>
<g id="cup">
	<path fill="#2B2627" d="M1303.6,1461.5c0,0,41.6-24.4,103.5-24c61.9,0.4,99.3,19.6,114.5,35.5c61,63.7,39.6,244.5,35.5,255.5
		l-36.1,6.1c0,0,16.6-201.7-14.9-209.7s-49.5,283-49.5,283l-135-9L1303.6,1461.5z"/>
	<path fill="#AAA49A" d="M1406.1,1436.5c-55.4-0.3-94.5,20.9-102.1,25c15.6,7.3,41.8,13.8,81.1,14.1c50.3,0.5,92.3-12.2,117.8-17
		C1482.9,1447,1450.9,1436.8,1406.1,1436.5z"/>
</g>
<g id="shoes">
	<path fill="#D6D5D4" d="M600.5,2726.9c-46.9,27.2-147.8,66.8-147.8,66.8s-80.8,49.3-70.9,82.4c22.4,75,271-3.4,387.7-36.1v-103.2
		L600.5,2726.9z"/>
</g>
<g id="jeans">
	<path fill="#294671" stroke="#284570" stroke-miterlimit="10" d="M1135.7,1524l110.5,1237.8h-181.6c-1-82.3-3.4-966.2-122.2-1007.7
		c-117.7-41.2-169.8,977.4-167,983.1l-182.1-10.6c0,0,160.3-1188.6,156.4-1225.3C745.7,1464.6,1135.7,1524,1135.7,1524z"/>
	<path fill="#D6D5D4" d="M1359.3,2812.6c-49.8-11.1-87.6-32.2-113.1-50.8l0,0h-25.5h-156.1l0,0c0-0.1,0-0.2,0-0.3
		c-0.1-5.3-0.2-14-0.3-25.7l-4,111.1c0,0,179.2,56.5,246.1,68.3c67,11.8,158.5-12.5,170.4-42.1
		C1488.8,2843.5,1460.3,2835,1359.3,2812.6z"/>
</g>
<g id="shirt">
	<path fill="#292724" d="M778.8,729.6c0,0,30.2,76.3,151.1,67.3s135.7-56.4,135.7-56.4l158,44.7l157.5,204l-146.7,119.3l-67.8-101.3
		l1.2,548.8l-456.2,1.7l-4-543l-57,97.5l-152.2-85.8l110.2-238.2L778.8,729.6z"/>
</g>
<g id="arms-l">
	<polygon fill="#ADADAD" points="366,1479 673,1216 810,1500 507,1754 	"/>
	<g>
		<path fill="#FFFFFF" d="M602.6,1484.5c-10.2-9.3-9.2-22-6.2-31.4c-1.6-0.2-3.3-0.4-5-0.4c-22.3,0-40.4,19.2-40.4,42.8
			c0,23.6,18.1,42.8,40.4,42.8c22.3,0,40.4-19.2,40.4-42.8c0-2.6-0.3-5.2-0.7-7.7C622.8,1490.8,611.4,1492.6,602.6,1484.5z"/>
		<path fill="#FFFFFF" d="M594.8,1446.7c0,0-5.6-10.1-3.4-29.7c2.2-19.6,1.4-22,1.4-22S608.9,1439.2,594.8,1446.7z"/>
	</g>
</g>
<g id="arms_1_">
	<path fill="#F9A468" d="M661.1,1632.5l-37.1-33.6l23.4-16.3c0,0-7.9-10.8-7.9-21.3s-24.8-7.2-24.8-7.2l-32.3,19.8l-53.2-232.5
		l99.9-241.6l-92.9-52.4c-30.9,72.3-116.6,274.9-116.6,297c0,27,99,331.5,103.5,340.5s78.7,43.5,78.7,43.5s18.7-39,48.7-67.5
		C680.6,1632.5,661.1,1632.5,661.1,1632.5z"/>
	<path fill="#F79459" d="M627.9,1686.8c-23.1-5.4-67.4-17.1-76.9-28.8c-13-16-95-314.7-95-314.7l107.2-280.5l-27-15.2
		c-30.9,72.3-116.6,274.9-116.6,297c0,27,99,331.5,103.5,340.5s78.7,43.5,78.7,43.5S611.4,1708.6,627.9,1686.8z"/>
</g>
<g id="arms">
	<path fill="#F9A468" d="M1558,1485c0,0-54-147-80-203s-72-128-72-128l-56.2-139.5l-94,76.5l106.2,233c0,0,66,100,126,128.7
		s68,104.9,68,104.9l-60,28.5l10,86l100-60L1558,1485z"/>
	<path fill="#F79459" d="M1558,1485c0,0-54-147-80-203s-72-128-72-128l-56.2-139.5l-43.3,35.2l74.6,166.2
		c0,0,122.2,187.1,198.2,325.2L1558,1485z"/>
</g>
<g id="Layer_21">
</g>
<g>
	<polygon fill="#E35025" points="752.172,932.93 927.926,931.597 914.646,1108.644 844.328,1129.283 770.951,1107.943 	"/>
	<polygon fill="#F0652B" points="841.801,944.995 913.465,944.947 900.848,1096.018 844.076,1114.357 	"/>
	<polygon fill="#EBEBEC" points="786.746,965.95 897.436,965.132 894.881,988.893 810.09,991.096 812.926,1009.108 
		892.489,1012.283 888.124,1077.684 845.647,1092.837 797.439,1080.259 792.867,1044.992 815.906,1044.734 818.125,1059.686 
		842.716,1066.886 866.451,1061.78 869.381,1033.903 794.285,1035.239 	"/>
	
		<rect x="873.826" y="896.453" transform="matrix(0.9156 0.4021 -0.4021 0.9156 434.5412 -277.0981)" fill="none" width="6.888" height="0"/>
</g>
<text transform="matrix(1 0 0 1 770.1727 1196.9542)" fill="#FFFFFF" font-family="'Lato-Bold'" font-size="48" letter-spacing="3">HTML</text>
<text transform="matrix(1 0 0 1 985.9501 1196.9543)" fill="#FFFFFF" font-family="'Lato-Bold'" font-size="48" letter-spacing="3">CSS</text>
<polygon fill="#0A73B8" points="951.723,929.707 1129.235,934.31 1109.311,1117.039 1033.048,1137.782 961.484,1113.457 "/>
<polygon fill="#26A5DE" points="1041.574,949.081 1116.425,949.703 1097.589,1104.886 1036.816,1118.877 "/>
<polygon fill="#FFFFFF" points="980.133,966.715 1098.495,969.837 1096.187,992.476 1048.788,1013.924 1095.388,1017.193 
	1085.553,1086.581 1038.797,1097.185 987.423,1081.704 984.119,1048.274 1007.814,1050.027 1008.044,1066.671 1036.203,1074.492 
	1064.736,1065.432 1067.245,1037.955 984.655,1035.372 981.447,1009.325 1037.095,987.575 979.431,986.326 "/>
</svg>
