<?xml version="1.0" encoding="utf-8"?>
<!-- Generator: Adobe Illustrator 17.0.0, SVG Export Plug-In . SVG Version: 6.00 Build 0)  -->
<!DOCTYPE svg PUBLIC "-//W3C//DTD SVG 1.1//EN" "http://www.w3.org/Graphics/SVG/1.1/DTD/svg11.dtd">
<svg version="1.1" id="Layer_1" xmlns="http://www.w3.org/2000/svg" xmlns:xlink="http://www.w3.org/1999/xlink" x="0px" y="0px"
	 width="1240px" height="2775.644px" viewBox="0 0 1240 2775.644" enable-background="new 0 0 1240 2775.644" xml:space="preserve">
<g id="build">
	<path fill="#F9A569" d="M446.4,423.1c28.8,133.3-7.4,152.3-72.2,182.6c0,0,42.7,91.1,174.6,88.6s180.4-82.4,180.4-82.4
		c0-7.5-119.5-15.5-83-198.3L446.4,423.1z"/>
	<path fill="#F7945A" d="M639.4,488.4c-1-21,0.8-45.7,6.6-74.8l-199.7,9.5c13.9,64.3,12.7,102,0.4,127.2
		C495.5,544.4,575.5,528.9,639.4,488.4z"/>
</g>
<g id="ears">
	<path fill="#F7945A" d="M698.8,265.4c-7.1-1.6-18.8,3.8-28.4,13.1c-0.1,19.5-0.1,41.8,0.1,50.2c0.1,5.7,0.1,16.6,0.1,28.3
		c2.9,2.2,6,3.5,9.3,3.5C711.6,360.4,709.5,267.8,698.8,265.4z"/>
	<path fill="#F7945A" d="M413.3,275.8c-8.9-7.6-19-11.9-25.4-10.4c-8.9,2-10.8,95,18.8,95c2.3,0,4.5-0.8,6.6-1.8
		C413.3,325.5,413.3,298.1,413.3,275.8z"/>
</g>
<g id="hair">
	<path fill="#424143" d="M413.8,329.3c0-343.9,0,205.7,0-146c0,0,65.9-18.2,132.7-18.2s125.6,28.1,125.6,28.1l-0.1,52.2
		c0,0-0.2,31.6-0.2,56.7c21.6-89,56.7-243.2-7.8-242.1c0,0-17-28.7-95.7-39c-45.8-6-55.9-21-55.9-21l15.4,19.5
		c0,0-49.7-9.8-55.4-16.1l24.3,25.9c0,0-77.7,8.6-99.1-0.8l60,22.5c0,0-68.7,18.4-74.3,12.4l27.8,22.1c0,0-27.6,23.3-29.8,23.3
		c-2.1,0,16.3,2.3,16.3,2.3C387.2,113.4,397.8,265.9,413.8,329.3z"/>
</g>
<g id="face">
	<path fill="#F9A569" d="M672,244.9c0,0-0.4,67.6,0,83.7s-0.2,74.3-0.2,74.3L592.4,502l-87.1,2.3l-92.6-81.8
		c0-693.2,0,451.6,0-239.7c0,0,65.9-18.2,132.7-18.2S672,192.7,672,192.7L672,244.9z"/>
	<path fill="#F7945A" d="M435.2,413.1c-3.7-13.3-0.8-195.3-0.1-235.6c-13.8,3-22.2,5.3-22.2,5.3c0,2.4,0,4.7,0,7
		c0-0.8,0,54.9,0,224.6c0,2.7,0,5.4,0,8.1l88.9,78.6C477.3,472,438.1,423.8,435.2,413.1z"/>
	<path fill="#F7945A" d="M672,328.6c-0.4-16.1,0-83.7,0-83.7l0.1-52.2c0,0-8.5-4-22.6-9c1.1,50.5,4.2,214.3-0.3,220.3
		c-2.9,3.9-21.2,40.9-37.1,73.4l59.7-74.5C671.8,403,672.4,344.8,672,328.6z"/>
</g>
<g id="eyes">
	<path fill="#2A1315" d="M661.5,264.5c0,0-1.9,10.9-9.8,6c-7.9-4.9-11.3-10.5-22.1-10.5s-39.8,13.1-47.3,14.6s-18.4-10.1-18.4-10.1
		c6-1.5,43.5-16.5,67.6-16.5S661.5,264.5,661.5,264.5z"/>
	<path fill="#FFFFFF" d="M573.3,293c0,0,19.9-6.8,39.4-9c19.5-2.3,33.4,2.6,33.4,2.6s-3,24.8-27,24.8
		C595,311.4,583.3,318.4,573.3,293z"/>
	<path fill="#424143" d="M612.7,288.5c12.9-0.3,26.2-0.2,33.1-0.1c0.2-1,0.4-1.8,0.4-1.8s-13.9-4.9-33.4-2.6
		c-14.6,1.7-29.3,5.9-35.9,7.9C587.3,290.4,602,288.7,612.7,288.5z"/>
	<path fill="#424143" d="M612.7,284c-3.9,0.5-7.8,1.1-11.6,1.8c-1.1,1.9-1.9,3.9-1.9,6.2c0,7.2,6,12.9,13.5,12.9s13.5-5.8,13.5-12.9
		c0-3.3-1.4-6.2-3.5-8.5C619.5,283.6,616.3,283.6,612.7,284z"/>
	<path fill="#2A1315" d="M419.8,264.5c0,0,1.9,10.9,9.8,6c7.9-4.9,11.3-10.5,22.1-10.5c10.9,0,39.8,13.1,47.3,14.6
		s18.4-10.1,18.4-10.1c-6-1.5-43.5-16.5-67.6-16.5S419.8,264.5,419.8,264.5z"/>
	<path fill="#FFFFFF" d="M508,293c0,0-19.9-6.8-39.4-9s-33.4,2.6-33.4,2.6s3,24.8,27,24.8C486.2,311.4,497.9,318.4,508,293z"/>
	<path fill="#424143" d="M468.6,288.5c-12.9-0.3-26.2-0.2-33.1-0.1c-0.2-1-0.4-1.8-0.4-1.8s13.9-4.9,33.4-2.6
		c14.6,1.7,29.3,5.9,35.9,7.9C494,290.4,479.3,288.7,468.6,288.5z"/>
	<path fill="#424143" d="M468.6,284c3.9,0.5,7.8,1.1,11.6,1.8c1.1,1.9,1.9,3.9,1.9,6.2c0,7.2-6,12.9-13.5,12.9s-13.5-5.8-13.5-12.9
		c0-3.3,1.4-6.2,3.5-8.5C461.7,283.6,464.9,283.6,468.6,284z"/>
</g>
<g id="nose">
	<path fill="#A06B43" d="M569.1,377.4c8.6,6.4-15.5,15.7-22.3,15.7c-19.6,0-29.1-6.1-25.4-13.8c3.8-7.9,12.5-0.4,22.8,8.6
		C551,393.9,558.4,369.5,569.1,377.4z"/>
	<path fill="#F7945A" d="M576.8,373.3c-5.4-2.3-14.2-0.4-19.1,6c3.3-2.9,7.4-4.9,11.5-1.9c8.6,6.4-11,13.2-17.8,13.2
		s-12.3,0.7-12.3,0.7s-22.7-1.1-17.5-12c2-4.1,5.4-4,9.6-1.6c-1.1-2.4-2-5-2.1-8.1c-0.8-15.8,0-27,0-27s-22.1,28.9-22.9,35.3
		s1.9,22.5,1.9,22.5s22,3.8,33,3.8c10.9,0,34.6-15.4,38.7-18.4C583.8,382.7,583.7,376.3,576.8,373.3z"/>
</g>
<g id="mouth">
	<path fill="#E3794D" d="M497.1,432.2c14.7-3.8,32.3-25.1,49-12c23.6-15.5,36.3,11.6,47.1,9.8C593.2,430,544.2,444.2,497.1,432.2z"
		/>
	<path fill="#E3794D" stroke="#E2784C" stroke-width="0.25" stroke-miterlimit="10" d="M497.1,432.2c0,0,15.4,21.1,49,21.1
		s46.4-22.9,46.4-22.9S544.2,444.2,497.1,432.2z"/>
	<path fill="#9A5131" d="M587.7,431.3c-15.5,3.7-74.5,3.9-85.9,1.9C534.1,440.4,571.5,435.7,587.7,431.3z"/>
</g>
<g id="cup">
	<path fill="#2B2627" d="M937.6,1318.9c0,0,41.6-24.4,103.5-24s99.3,19.6,114.5,35.5c61,63.7,39.6,244.5,35.5,255.5l-36.1,6.1
		c0,0,16.6-201.7-14.9-209.7s-49.5,283-49.5,283l-135-9L937.6,1318.9z"/>
	<path fill="#AAA49A" d="M1040.1,1293.9c-55.4-0.3-94.5,20.9-102.1,25c15.6,7.3,41.8,13.8,81.1,14.1c50.3,0.5,92.3-12.2,117.8-17
		C1116.9,1304.4,1084.9,1294.2,1040.1,1293.9z"/>
</g>
<g id="shoes">
	<path fill="#D7D6D4" d="M234.5,2584.3c-46.9,27.2-147.8,66.8-147.8,66.8s-80.8,49.3-70.9,82.4c22.4,75,271-3.4,387.7-36.1v-103.2
		L234.5,2584.3z"/>
</g>
<g id="jeans">
	<path fill="#2B4772" stroke="#2A4671" stroke-miterlimit="10" d="M769.7,1381.4l110.5,1237.8H698.6c-1-82.3-3.4-966.2-122.2-1007.7
		c-117.7-41.2-169.8,977.4-167,983.1L227.3,2584c0,0,160.3-1188.6,156.4-1225.3C379.7,1322,769.7,1381.4,769.7,1381.4z"/>
	<path fill="#D7D6D4" d="M993.3,2670c-49.8-11.1-87.6-32.2-113.1-50.8l0,0h-25.5H698.6l0,0c0-0.1,0-0.2,0-0.3
		c-0.1-5.3-0.2-14-0.3-25.7l-4,111.1c0,0,179.2,56.5,246.1,68.3c67,11.8,158.5-12.5,170.4-42.1
		C1122.8,2700.9,1094.3,2692.4,993.3,2670z"/>
</g>
<g id="shirt">
	<path fill="#2A2824" d="M412.8,587c0,0,30.2,76.3,151.1,67.3s135.7-56.4,135.7-56.4l158,44.7l157.5,204L868.4,965.9l-67.8-101.3
		l1.2,548.8l-456.2,1.7l-4-543l-57,97.5l-152.2-85.8l110.2-238.2L412.8,587z"/>
</g>
<g id="arms-l">
	<polygon fill="#AEAEAE" points="0,1336.4 307,1073.4 444,1357.4 141,1611.4 	"/>
	<g>
		<path fill="#FFFFFF" d="M236.6,1341.9c-10.2-9.3-9.2-22-6.2-31.4c-1.6-0.2-3.3-0.4-5-0.4c-22.3,0-40.4,19.2-40.4,42.8
			c0,23.6,18.1,42.8,40.4,42.8c22.3,0,40.4-19.2,40.4-42.8c0-2.6-0.3-5.2-0.7-7.7C256.8,1348.2,245.4,1350,236.6,1341.9z"/>
		<path fill="#FFFFFF" d="M228.8,1304.1c0,0-5.6-10.1-3.4-29.7c2.2-19.6,1.4-22,1.4-22S242.9,1296.6,228.8,1304.1z"/>
	</g>
</g>
<g id="arms_1_">
	<path fill="#F9A569" d="M295.1,1489.9l-37.1-33.6l23.4-16.3c0,0-7.9-10.8-7.9-21.3s-24.8-7.2-24.8-7.2l-32.3,19.8l-53.2-232.5
		l99.9-241.6l-92.9-52.4c-30.9,72.3-116.6,274.9-116.6,297c0,27,99,331.5,103.5,340.5s78.7,43.5,78.7,43.5s18.7-39,48.7-67.5
		C314.6,1489.9,295.1,1489.9,295.1,1489.9z"/>
	<path fill="#F7945A" d="M261.9,1544.2c-23.1-5.4-67.4-17.1-76.9-28.8c-13-16-95-314.7-95-314.7l107.2-280.5l-27-15.2
		c-30.9,72.3-116.6,274.9-116.6,297c0,27,99,331.5,103.5,340.5s78.7,43.5,78.7,43.5S245.4,1566,261.9,1544.2z"/>
</g>
<g id="arms">
	<path fill="#F9A569" d="M1192,1342.4c0,0-54-147-80-203s-72-128-72-128l-56.2-139.5l-94,76.5l106.2,233c0,0,66,100,126,128.7
		s68,104.9,68,104.9l-60,28.5l10,86l100-60L1192,1342.4z"/>
	<path fill="#F7945A" d="M1192,1342.4c0,0-54-147-80-203s-72-128-72-128l-56.2-139.5l-43.3,35.2l74.6,166.2
		c0,0,122.2,187.1,198.2,325.2L1192,1342.4z"/>
</g>
<g id="logo">
	<g>
		<g>
			<polygon fill="none" stroke="#FFFFFF" stroke-width="20" stroke-miterlimit="10" points="577.4,869.3 525.1,943.2 575.9,1037.6 
				627.1,943.3 			"/>
			<polygon fill="none" stroke="#FFFFFF" stroke-width="20" stroke-miterlimit="10" points="577.1,869.7 548,910.8 576.3,963.3 
				604.7,910.9 			"/>
			<polygon fill="none" stroke="#FFFFFF" stroke-width="20" stroke-miterlimit="10" points="548,909.4 472.7,852.6 523.8,941.5 			
				"/>
			<polygon fill="none" stroke="#FFFFFF" stroke-width="20" stroke-miterlimit="10" points="604,909.4 679.3,852.6 628.2,941.5 			
				"/>
		</g>
		<text transform="matrix(1 0 0 1 521.0934 1107.4528)" fill="#FFFFFF" font-family="'Lato-Bold'" font-size="24">VANCROW</text>
	</g>
</g>
</svg>
