<?xml version="1.0" encoding="utf-8"?>
<!-- Generator: Adobe Illustrator 17.0.0, SVG Export Plug-In . SVG Version: 6.00 Build 0)  -->
<!DOCTYPE svg PUBLIC "-//W3C//DTD SVG 1.1//EN" "http://www.w3.org/Graphics/SVG/1.1/DTD/svg11.dtd">
<svg version="1.1" id="Layer_2" xmlns="http://www.w3.org/2000/svg" xmlns:xlink="http://www.w3.org/1999/xlink" x="0px" y="0px"
	 width="2004.105px" height="1240.416px" viewBox="7.614 2.188 2004.105 1240.416"
	 enable-background="new 7.614 2.188 2004.105 1240.416" xml:space="preserve">
<path fill="#F8A368" d="M1081.066,364.148c0,0-2.693,114.65,38.931,117.259c41.624,2.609-64.864,62.607-78.793,62.607
	s-130.106,0-130.106,0l-24.093-41.738c0,0,40.288-88.622,33.408-128.076C913.533,334.747,1081.066,364.148,1081.066,364.148z"/>
<path fill="#F69359" d="M1084.256,417.255c-3.792-27.365-3.19-53.107-3.19-53.107S913.532,334.747,920.413,374.2
	c2.705,15.512-1.883,38.624-8.445,60.962C995.95,451.717,1050.686,436.408,1084.256,417.255z"/>
<path fill="#292724" d="M868.148,461.842c0,0,41.175,56.086,131.455,48.26c90.28-7.826,135.453-66.52,135.453-66.52
	s81.347-9.13,90.477,39.13s7.826,63.912,7.826,63.912s26.086,33.912,26.086,39.13s-80.753,134.345-80.753,159.127
	c0,0-17.071-14.348-18.375-24.782c-1.304-10.435-7.654,136.954-23.478,159.127c-15.824,22.173-194.996-3.889-194.996-3.889
	s-40.008-127.582-67.604-150.021c0,0,1.499,28.695-14.034,32.608s-41.62-73.042-104.227-66.52s-49.564,14.923-49.564,14.923
	s19.565-119.269,29.999-136.225C758.852,533.635,820.398,464.062,868.148,461.842z"/>
<path fill="#F6DBBF" d="M781.736,1084.094c-29.684,41.537-84.964,88.514-87.063,104.255c-2.609,19.565,3.913,28.695,19.565,44.843
	c45.506,46.949,153.774-97.016,172.767-97.016c5.955,0-0.166-22.478-5.809-39.919L781.736,1084.094z"/>
<path fill="#81191C" d="M881.196,1096.257l-99.46-12.162c-19.286,26.987-49.365,56.262-68.655,77.783
	c26.518,11.219,60.735,27.618,66.111,39.515l109.326-78.259C887.051,1115.28,884.064,1105.12,881.196,1096.257z"/>
<path fill="#F6DBBF" d="M777.56,1151.067l-35.231-20.558c-3.526,3.779-7.011,7.477-10.413,11.086
	c11.225,9.005,34.101,25.923,45.644,24.247C793.212,1163.567,777.56,1151.067,777.56,1151.067z"/>
<path fill="#F6DBBF" d="M768.855,1100.69c10.135,8.304,35.479,27.816,47.834,26.021c15.652-2.274,0-14.774,0-14.774l-38.787-22.633
	C775.052,1093.077,772.01,1096.881,768.855,1100.69z"/>
<path fill="#F6DBBF" d="M750.722,1121.419c10.923,8.826,34.596,26.572,46.403,24.857c15.652-2.274,0-14.774,0-14.774l-36.411-21.246
	C757.437,1114.004,754.089,1117.731,750.722,1121.419z"/>
<path fill="#F6DBBF" d="M1374.686,1179.219c0.338-10.518-53.303-56.779-81.966-80.729c-22.214,12.016-82.757,26.615-113.684,33.591
	c17.716,41.801,100.451,83.245,119.539,92.79c23.478,11.739,37.825,10.435,58.694,0
	C1378.138,1214.436,1374.225,1193.566,1374.686,1179.219z"/>
<path fill="#F4F4F4" d="M694.114,1162.04"/>
<path fill="#81191C" d="M1292.719,1098.49c-18.523,10.019-63.685,21.831-96.116,29.526c29.288,32.071,80.267,57.073,80.267,57.073
	c4.946-14.631,46.49-25.109,78.23-31.067C1336.951,1135.988,1310.199,1113.095,1292.719,1098.49z"/>
<path fill="#F6DBBF" d="M1292.719,1098.49c-6.746,3.649-17.035,7.536-28.946,11.375c-11.159,5.789-18.736,11.885-15.686,16.963
	c6.349,10.57,44.474-2.921,64.925-11.122C1305.65,1109.359,1298.647,1103.442,1292.719,1098.49z"/>
<path fill="#F6DBBF" d="M1340.65,1140.25c-6.481-5.978-13.352-12.104-20.121-18.021c-22.467,7.98-52.601,20.721-47.008,30.033
	C1280.105,1163.222,1320.87,1148.306,1340.65,1140.25z"/>
<path fill="#284570" d="M1046.84,1016.179c0,0,128.27,84.992,220.661-43.043c92.391-128.035,70.178-325.099,70.178-325.099
	s-84.247,35.216-167.606,87.315c-52.918,33.074-111.305,66.277-128.869,123.003c0,0-28.276-6.522-34.798,3.913
	s-70.855-137.118-214.627-142.823c-143.771-5.706-117.976,91.955-73.629,166.301s164.345,162.256,215.213,158.083
	C984.233,1039.656,1046.84,1016.179,1046.84,1016.179z"/>
<path fill="#F69359" d="M838.47,810.524c16.714-28.297,36.439-85.208,36.439-85.208l-51.761-39.784l-43.957-34.944
	c2.123,4.614,4.384,8.707,6.784,11.982c18.261,24.918,59.999,125.351,53.477,144.916C839.146,808.408,838.814,809.44,838.47,810.524
	z"/>
<path fill="#1C355B" d="M1248.087,1004.261c-108.945,2.174-209.073-31.125-209.073-31.125
	c-56.65,35.462-132.512,20.25-224.782,14.264c45.541,35.592,91.415,59.267,127.057,56.429
	c50.878-4.051,113.476-27.651,113.476-27.651S1159.681,1085.683,1248.087,1004.261z"/>
<path fill="#284570" stroke="#284570" stroke-miterlimit="10" d="M739.02,750.097c0,0,143.917,87.39,135.218,195.648
	s25.214,152.744,25.214,152.744l-129.128-15.791c0,0,10.435-28.695-13.043-50.869c-23.478-22.173-96.52-84.781-92.607-170.866
	s13.529-117.416,40.025-122.62C731.194,733.141,739.02,750.097,739.02,750.097z"/>
<path fill="#1C355B" d="M874.238,945.745c5.291-65.851-45.883-123.977-86.789-159.414c11.509,67.893,31.837,186.315,39.602,222.223
	c5.259,24.317,27.441,58.194,49.329,87.114l23.072,2.821C899.452,1098.49,865.539,1054.004,874.238,945.745z"/>
<path fill="#292724" d="M887.426,701.837l-25.936,59.159c0,0-68.993-85.518-98.993-98.425c-29.999-12.907,39.13-75.109,39.13-75.109
	L887.426,701.837z"/>
<path fill="#284570" d="M1354.66,647.69c0,0,53.477,127.189-14.348,238.057c-67.825,110.867-57.39,186.518-40.434,202.17
	c16.956,15.652-139.563,48.26-139.563,48.26s40.434-123.911,33.912-152.606c-6.522-28.695-49.001-139.266-24.156-183.909
	C1194.918,755.018,1237.271,644.411,1354.66,647.69z"/>
<path fill="#1C355B" d="M1229.445,958.136c-21.302-53.966-43.632-128.538-53.786-168.937c-1.963,3.774-3.821,7.289-5.586,10.462
	c-1.529,2.747-2.801,5.747-3.844,8.96l-3.379,41.865c3.678,50.204,26.716,112.569,31.378,133.084
	c6.522,28.695-33.912,152.606-33.912,152.606s13.265-2.764,31.641-7.066C1213.166,1084.056,1250.923,1012.546,1229.445,958.136z"/>
<g>
	<path fill="#F69359" d="M1258.755,587.462c-7.842,15.085-81.171,117.348-88.682,147.89c6.322,10.807,13.383,22.31,20.403,32.632
		c16.951-52.322,45.977-104.537,45.977-104.537S1249.854,618.661,1258.755,587.462z"/>
</g>
<path fill="#2B77BC" d="M1959.993,931.617c-0.996,12.928-12.285,22.601-25.213,21.604l-481.172-37.088
	c-12.928-0.996-22.601-12.285-21.604-25.213l51.655-670.167c0.996-12.928,12.285-22.601,25.213-21.604l481.172,37.088
	c12.928,0.996,22.601,12.285,21.604,25.213L1959.993,931.617z"/>
<path fill="#2B77BC" d="M59.339,931.617c0.996,12.928,12.285,22.601,25.213,21.604l481.172-37.088
	c12.928-0.996,22.601-12.285,21.604-25.213l-51.655-670.167c-0.996-12.928-12.285-22.601-25.213-21.604L29.288,236.237
	C16.36,237.234,6.688,248.522,7.684,261.45L59.339,931.617z"/>
<ellipse fill="#FFFFFF" cx="1721.827" cy="585.265" rx="195.15" ry="180.846"/>
<ellipse fill="#FFFFFF" cx="299.463" cy="585.265" rx="217.598" ry="201.649"/>
<g>
	<path fill="#2B77BC" d="M1714.932,594.056c-1.092,5.588-2.783,10.535-5.074,14.842c-2.293,4.308-5.167,7.823-8.624,10.547
		c-3.455,2.726-7.49,4.577-12.104,5.553c-4.612,0.976-9.805,0.901-15.576-0.227c-2.61-0.51-5.159-1.151-7.647-1.922
		c-2.488-0.773-5.044-1.747-7.666-2.926l3.881-13.292c0.323-1.173,0.98-2.043,1.973-2.61c0.988-0.566,2.24-0.703,3.752-0.407
		c0.778,0.152,1.716,0.467,2.812,0.941c1.096,0.476,2.444,0.87,4.048,1.183c2.244,0.438,4.263,0.512,6.056,0.221
		c1.792-0.292,3.379-1.051,4.761-2.279c1.382-1.228,2.575-2.956,3.58-5.185c1.007-2.228,1.845-5.061,2.516-8.495l12.565-64.304
		l23.221,4.537L1714.932,594.056z"/>
	<path fill="#2B77BC" d="M1778.763,586.416c-0.721,0.763-1.425,1.267-2.114,1.513c-0.691,0.246-1.517,0.274-2.479,0.086
		c-1.008-0.196-1.974-0.61-2.896-1.243c-0.924-0.632-1.918-1.313-2.988-2.046c-1.068-0.731-2.295-1.458-3.674-2.181
		c-1.382-0.721-3.011-1.266-4.888-1.632c-2.703-0.528-4.877-0.418-6.521,0.331c-1.644,0.748-2.646,2.039-3.003,3.87
		c-0.26,1.329-0.006,2.52,0.764,3.573c0.769,1.054,1.866,2.065,3.295,3.033c1.427,0.969,3.067,1.942,4.921,2.922
		c1.852,0.98,3.739,2.039,5.656,3.175c1.918,1.136,3.765,2.388,5.542,3.757c1.776,1.37,3.303,2.928,4.578,4.675
		c1.274,1.747,2.182,3.743,2.718,5.988c0.536,2.244,0.521,4.809-0.042,7.694c-0.689,3.528-1.966,6.654-3.829,9.379
		c-1.864,2.728-4.277,4.919-7.24,6.574c-2.963,1.657-6.427,2.715-10.392,3.176c-3.967,0.461-8.376,0.218-13.23-0.73
		c-2.429-0.475-4.811-1.179-7.147-2.11c-2.34-0.932-4.565-2.009-6.68-3.231c-2.116-1.221-4.03-2.558-5.742-4.011
		c-1.714-1.45-3.137-2.93-4.269-4.435l6.477-6.867c0.772-0.8,1.624-1.382,2.552-1.747s2.055-0.42,3.384-0.16
		c1.236,0.242,2.293,0.734,3.17,1.476c0.877,0.742,1.827,1.546,2.848,2.411c1.017,0.865,2.24,1.721,3.669,2.571
		c1.426,0.85,3.309,1.503,5.644,1.959c1.648,0.322,3.079,0.423,4.291,0.303c1.212-0.119,2.221-0.409,3.023-0.871
		c0.804-0.46,1.438-1.027,1.901-1.697c0.462-0.67,0.771-1.395,0.923-2.174c0.277-1.419,0.025-2.681-0.758-3.785
		c-0.782-1.104-1.888-2.141-3.314-3.108c-1.429-0.968-3.082-1.933-4.962-2.896c-1.881-0.962-3.78-2.011-5.697-3.146
		c-1.919-1.135-3.772-2.413-5.563-3.833c-1.791-1.419-3.312-3.071-4.56-4.956s-2.129-4.064-2.645-6.543
		c-0.514-2.478-0.453-5.343,0.182-8.596c0.591-3.022,1.736-5.782,3.438-8.279c1.7-2.496,3.92-4.548,6.658-6.152
		c2.739-1.604,5.989-2.669,9.753-3.193c3.765-0.524,8.004-0.326,12.723,0.596c2.564,0.501,5.004,1.217,7.319,2.144
		c2.315,0.928,4.445,2.009,6.392,3.246c1.945,1.236,3.678,2.585,5.201,4.047c1.52,1.463,2.814,2.987,3.883,4.575L1778.763,586.416z"
		/>
</g>
<g>
	<path fill="#2B77BC" d="M156.517,568.584c0.353,1.405,0.399,2.796,0.14,4.17c-0.259,1.377-0.767,2.655-1.52,3.832
		c-0.753,1.179-1.715,2.207-2.886,3.086c-1.171,0.878-2.497,1.504-3.977,1.876c-1.443,0.362-2.858,0.425-4.25,0.189
		c-1.39-0.235-2.686-0.696-3.888-1.384c-1.201-0.686-2.232-1.577-3.092-2.674c-0.86-1.093-1.466-2.343-1.819-3.748
		c-0.362-1.442-0.426-2.858-0.19-4.249c0.235-1.39,0.719-2.681,1.447-3.874c0.73-1.191,1.654-2.211,2.772-3.057
		c1.12-0.846,2.399-1.449,3.842-1.812c1.48-0.372,2.941-0.457,4.385-0.254c1.443,0.203,2.776,0.655,4.001,1.356
		c1.225,0.701,2.28,1.606,3.164,2.715C155.531,565.867,156.155,567.143,156.517,568.584z M158.529,585.266l14.856,59.146
		c0.695,2.771,0.999,5.468,0.912,8.092c-0.088,2.625-0.707,5.059-1.856,7.305c-1.151,2.246-2.912,4.231-5.282,5.957
		c-2.372,1.724-5.511,3.078-9.419,4.06c-1.443,0.362-2.802,0.613-4.078,0.751c-1.276,0.141-2.621,0.205-4.036,0.198l-1.761-9.423
		c-0.124-0.815-0.006-1.472,0.354-1.965c0.36-0.494,1.223-0.912,2.589-1.255c1.366-0.344,2.457-0.738,3.272-1.186
		c0.816-0.447,1.409-1.02,1.778-1.718c0.369-0.697,0.536-1.557,0.502-2.577c-0.035-1.02-0.242-2.289-0.623-3.807l-14.856-59.146
		L158.529,585.266z"/>
	<path fill="#2B77BC" d="M224.903,568.595l19.531,77.762l-17.647,4.432l-6.32-25.162c-1.686,2.765-3.746,5.169-6.177,7.211
		c-2.433,2.043-5.526,3.536-9.283,4.479c-3.074,0.772-6.093,0.804-9.054,0.096c-2.962-0.709-5.715-2.113-8.261-4.219
		c-2.546-2.104-4.829-4.889-6.85-8.356c-2.02-3.465-3.631-7.589-4.832-12.372c-1.106-4.402-1.526-8.644-1.259-12.725
		c0.265-4.082,1.164-7.775,2.692-11.086c1.53-3.308,3.655-6.132,6.376-8.469c2.72-2.338,5.96-3.979,9.718-4.923
		c1.782-0.448,3.434-0.701,4.952-0.76c1.519-0.059,2.947,0.046,4.285,0.315c1.339,0.27,2.62,0.674,3.845,1.213
		c1.226,0.541,2.431,1.166,3.618,1.876l0.154-2.521c0.188-2.144,1.381-3.494,3.583-4.047L224.903,568.595z M207.751,622.224
		c1.29-0.324,2.426-0.739,3.408-1.248c0.982-0.51,1.851-1.102,2.61-1.775c0.758-0.675,1.44-1.452,2.048-2.33
		c0.605-0.878,1.174-1.868,1.704-2.971l-6.291-25.047c-1.728-1.098-3.437-1.759-5.127-1.981c-1.688-0.219-3.388-0.116-5.095,0.313
		c-1.633,0.41-3.05,1.109-4.254,2.098c-1.204,0.988-2.131,2.32-2.778,3.996c-0.649,1.677-0.972,3.724-0.969,6.144
		s0.409,5.243,1.22,8.469c0.781,3.112,1.667,5.675,2.656,7.684c0.989,2.012,2.055,3.569,3.2,4.674s2.358,1.799,3.64,2.082
		C205.004,622.612,206.346,622.577,207.751,622.224z"/>
	<path fill="#2B77BC" d="M255.072,561.017l9.408,37.458c0.734,2.923,1.964,5.014,3.695,6.273c1.728,1.26,3.882,1.567,6.464,0.919
		c1.936-0.486,3.646-1.34,5.135-2.562c1.488-1.221,2.849-2.752,4.081-4.596l-10.566-42.068l17.647-4.432l14.827,59.032l-10.93,2.746
		c-2.201,0.553-3.891-0.07-5.069-1.873l-1.94-3.146c-0.861,1.388-1.788,2.681-2.778,3.876c-0.991,1.198-2.1,2.283-3.328,3.257
		c-1.229,0.974-2.594,1.84-4.097,2.603c-1.503,0.76-3.204,1.379-5.102,1.855c-3.226,0.811-6.223,0.968-8.989,0.474
		c-2.767-0.496-5.257-1.534-7.47-3.117c-2.213-1.582-4.099-3.63-5.658-6.144c-1.56-2.514-2.748-5.4-3.568-8.665l-9.408-37.458
		L255.072,561.017z"/>
	<path fill="#2B77BC" d="M329.643,541.32c3.909-0.981,7.638-1.272,11.188-0.874c3.55,0.4,6.783,1.464,9.698,3.193
		c2.916,1.729,5.45,4.107,7.603,7.137c2.152,3.029,3.763,6.671,4.831,10.921c0.333,1.329,0.548,2.424,0.644,3.287
		c0.096,0.864,0.054,1.582-0.126,2.15c-0.18,0.57-0.502,1.015-0.966,1.333c-0.464,0.319-1.096,0.577-1.893,0.777l-34.042,8.551
		c1.809,4.791,4.206,7.991,7.193,9.601c2.985,1.611,6.396,1.935,10.229,0.972c2.049-0.515,3.752-1.205,5.108-2.071
		c1.356-0.863,2.536-1.745,3.542-2.644c1.005-0.897,1.93-1.715,2.773-2.452c0.844-0.735,1.796-1.237,2.859-1.504
		c1.403-0.353,2.595-0.108,3.574,0.736l6.711,5.031c-1.298,2.545-2.835,4.736-4.613,6.576c-1.777,1.837-3.683,3.405-5.717,4.703
		c-2.035,1.297-4.125,2.367-6.274,3.21c-2.149,0.842-4.229,1.516-6.24,2.021c-4.137,1.039-8.187,1.34-12.149,0.903
		c-3.963-0.437-7.635-1.643-11.015-3.618c-3.381-1.975-6.354-4.737-8.921-8.289s-4.507-7.946-5.822-13.184
		c-0.991-3.946-1.257-7.854-0.796-11.721c0.46-3.868,1.619-7.447,3.476-10.738c1.856-3.29,4.383-6.164,7.578-8.62
		C321.27,544.249,325.126,542.455,329.643,541.32z M333.044,553.417c-3.378,0.849-5.775,2.469-7.19,4.862
		c-1.417,2.394-1.976,5.469-1.677,9.227l22.031-5.534c-0.353-1.404-0.877-2.725-1.571-3.964c-0.695-1.237-1.581-2.274-2.659-3.114
		c-1.079-0.839-2.362-1.414-3.853-1.725C336.635,552.857,334.941,552.94,333.044,553.417z"/>
	<path fill="#2B77BC" d="M381.358,592.055l-14.827-59.033l10.475-2.631c0.873-0.219,1.622-0.325,2.249-0.322
		c0.626,0.004,1.18,0.117,1.659,0.339c0.479,0.224,0.89,0.574,1.232,1.052c0.342,0.48,0.685,1.08,1.027,1.801l2.355,5.278
		c1.324-3.883,3.09-7.131,5.299-9.742c2.208-2.613,4.906-4.32,8.095-5.121c2.693-0.677,5.02-0.574,6.975,0.307l0.983,13.55
		c0.049,0.835-0.114,1.472-0.489,1.908c-0.375,0.438-0.942,0.751-1.7,0.942c-0.646,0.162-1.426,0.268-2.341,0.316
		c-0.917,0.048-2.038,0.239-3.366,0.573c-4.631,1.163-7.654,4.546-9.071,10.146l9.094,36.204L381.358,592.055z"/>
	<path fill="#2B77BC" d="M456.361,589.496c-0.236,1.31-0.665,2.336-1.285,3.076c-0.622,0.741-1.766,1.322-3.436,1.741l-13.207,3.317
		l5.38-26.769l-37.093-47.933l15.598-3.917c1.366-0.343,2.505-0.305,3.417,0.11c0.912,0.417,1.624,1.005,2.138,1.763l16.068,23.016
		c1.502,2.125,2.833,4.292,3.993,6.501c0.074-1.309,0.192-2.609,0.352-3.901c0.16-1.29,0.295-2.595,0.409-3.914l2.404-27.535
		c0.084-0.948,0.499-1.829,1.243-2.642c0.744-0.812,1.628-1.348,2.653-1.605l14.232-3.575L456.361,589.496z"/>
</g>
<path fill="#97999D" d="M570.787,495.079c0,0,368.297-15.557,450.094-18.889s396.386,0,445.951,19.565l-6.522,48.26
	c0,0-308.384-31.304-460.708-26.086s-439.275,26.086-439.275,26.086l-6.522-49.564L570.787,495.079z"/>
<path fill="#F8A368" d="M1318.139,566.187c0,0-18.26,208.692-19.565,233.474c-1.304,24.782-41.738,76.955-74.346,75.651
	c-32.608-1.304-54.782-18.26-41.738-78.259s53.963-133.605,53.963-133.605s21.688-72.478,28.21-97.26
	c-32.993-65.382-24.039-106.45-16.871-106.302c14.348,0.295,98.554,3.75,98.554,3.75l3.357,20.976c0,0,36.446-4.657,34.305,15.219
	C1380.584,531.623,1318.139,566.187,1318.139,566.187z"/>
<path fill="#F8A368" d="M757.281,566.187c0,0,10.435,71.465,28.695,96.384c18.26,24.918,59.999,125.351,53.477,144.916
	s-21.489,78.259-40.744,78.259c-19.255,0-54.472-14.348-79.254-66.52s-10.083-134.381-14.172-171.536
	c-4.089-37.155-17.132-81.503-17.132-81.503s-73.042-2.609-63.586-58.694c1.972-11.696,33.586-4.565,33.586-4.565
	s-0.599-22.702,1.304-24.13c5.217-3.913,99.129-28.991,99.129-28.991c2.116,6.417,33.342,76.925,21.964,90.899
	C772.736,550.3,757.281,566.187,757.281,566.187z"/>
<path fill="#F69359" d="M1349.702,484.611l-3.357-20.976c0,0-7.864-0.323-19.187-0.779
	c-13.217,66.193-57.716,276.705-114.225,411.246c3.586,0.661,7.362,1.052,11.294,1.21c32.608,1.304,73.042-50.869,74.346-75.651
	c1.304-24.782,19.565-233.474,19.565-233.474s62.444-34.564,65.868-66.357C1386.148,479.954,1349.702,484.611,1349.702,484.611z"/>
<path fill="#F69359" d="M681.923,471.181c-11.976,3.567-20.954,6.482-22.467,7.617c-1.904,1.428-1.304,24.13-1.304,24.13
	s-31.614-7.131-33.586,4.565c-9.456,56.086,63.586,58.694,63.586,58.694s13.043,44.347,17.132,81.503
	c4.089,37.155-10.611,119.363,14.171,171.536c14.874,31.314,33.505,48.991,50.19,58.129
	C735.865,751.562,698.866,561.459,681.923,471.181z"/>
<path fill="#F69359" d="M1129.029,226.799c-6.05-1.387-15.938,3.22-24.064,11.099c-0.045,16.482-0.05,35.338,0.114,42.443
	c0.112,4.793,0.124,14.026,0.099,23.916c2.452,1.855,5.102,2.952,7.898,2.952C1139.85,307.209,1138.125,228.888,1129.029,226.799z"
	/>
<path fill="#F69359" d="M887.426,235.613c-7.568-6.422-16.089-10.058-21.513-8.814c-7.498,1.721-9.131,80.41,15.95,80.41
	c1.938,0,3.779-0.646,5.563-1.563C887.426,277.691,887.426,254.528,887.426,235.613z"/>
<path fill="#404041" d="M887.891,280.902c0-290.996,0,174.096,0-123.579c0,0,55.776-15.386,112.31-15.386
	c56.535,0,106.3,23.821,106.3,23.821l-0.112,44.148c0,0-0.149,26.72-0.139,47.99c18.287-75.347,47.977-205.772-6.637-204.89
	c0,0-14.397-24.298-80.991-33.032c-38.749-5.082-47.324-17.786-47.324-17.786l13.022,16.516c0,0-42.044-8.258-46.907-13.657
	l20.545,21.915c0,0-65.726,7.305-83.839-0.635l50.808,19.057c0,0-58.123,15.563-62.887,10.481l23.503,18.739
	c0,0-23.394,19.692-25.195,19.692s13.771,1.906,13.771,1.906C865.336,98.185,874.304,227.238,887.891,280.902z"/>
<path fill="#F8A368" d="M1106.348,209.514c0,0-0.318,57.17,0,70.827c0.318,13.657-0.141,62.887-0.141,62.887l-67.192,83.849
	l-73.686,1.906l-78.324-69.22c0-586.654,0,382.194,0-202.832c0,0,55.774-15.386,112.308-15.386
	c56.535,0,107.147,23.821,107.147,23.821L1106.348,209.514z"/>
<path fill="#F69359" d="M905.937,351.83c-3.158-11.28-0.703-165.231-0.118-199.379c-11.707,2.521-18.814,4.481-18.814,4.481
	c0,1.991,0,3.957,0,5.912c0-0.698,0,46.474,0,190.09c0,2.253,0,4.529,0,6.83l75.242,66.496
	C941.586,401.698,908.462,360.85,905.937,351.83z"/>
<path fill="#F69359" d="M1106.348,280.341c-0.318-13.657,0-70.827,0-70.827l0.112-44.148c0,0-7.17-3.374-19.124-7.582
	c0.906,42.754,3.542,181.362-0.274,186.397c-2.481,3.274-17.956,34.58-31.391,62.111l50.536-63.064
	C1106.207,343.228,1106.666,293.998,1106.348,280.341z"/>
<path fill="#2A1213" d="M902.776,211.881c0,0-1.628,9.204,6.046,7.58c7.675-1.623,11.979-5.136,20.644-2.014
	c8.665,3.122,27.905,21.871,33.45,25.22c5.545,3.349,17.549-2.792,17.549-2.792c-4.35-2.918-29.924-25.637-49.048-32.528
	C912.294,200.456,902.776,211.881,902.776,211.881z"/>
<path fill="#9F6A42" d="M1019.324,321.631c7.305,5.399-13.144,13.274-18.861,13.274c-16.628,0-24.588-5.148-21.475-11.686
	c3.176-6.67,10.619-0.362,19.31,7.292C1003.992,335.526,1010.234,314.912,1019.324,321.631z"/>
<path fill="#F69359" d="M1025.795,318.137c-4.561-1.985-12.015-0.341-16.176,5.107c2.801-2.458,6.3-4.129,9.704-1.613
	c7.305,5.399-9.336,11.158-15.053,11.158s-10.437,0.564-10.437,0.564s-19.223-0.941-14.846-10.135
	c1.672-3.51,4.546-3.375,8.139-1.392c-0.938-2.025-1.662-4.249-1.787-6.866c-0.635-13.34,0-22.868,0-22.868
	s-18.739,24.456-19.374,29.855c-0.635,5.399,1.588,19.057,1.588,19.057s18.66,3.176,27.91,3.176c9.25,0,29.26-13.012,32.754-15.558
	C1031.711,326.077,1031.631,320.678,1025.795,318.137z"/>
<g>
	<g>
		<g>
			<path fill="#404041" d="M911.098,237.339c0.024,0.085,0.466,0.069,1.28-0.038c0.407-0.053,0.906-0.129,1.493-0.227
				c0.593-0.06,1.276-0.128,2.043-0.206c3.056-0.263,7.555-0.366,12.873,0.95c5.312,1.256,11.365,3.902,17.346,8.014
				c5.987,4.082,11.979,9.527,17.33,15.974c0.47,0.57,0.942,1.163,1.36,1.721c0.62-0.584,1.233-1.16,1.845-1.735
				c-6.475-5.283-13.289-9.55-19.994-12.317c-6.692-2.796-13.217-4.036-18.683-4.115c-5.481-0.101-9.856,0.877-12.714,1.88
				c-2.873,1.009-4.265,2.01-4.177,2.153c0.082,0.155,1.582-0.526,4.455-1.22c2.859-0.69,7.117-1.363,12.371-1.04
				c5.243,0.302,11.445,1.669,17.841,4.484c6.408,2.786,12.962,6.977,19.271,12.138l8.065,6.596l-6.22-8.332
				c-0.482-0.646-0.951-1.233-1.445-1.834c-5.527-6.658-11.719-12.185-17.995-16.31c-6.26-4.146-12.668-6.742-18.27-7.822
				c-5.61-1.143-10.3-0.747-13.394-0.17c-0.776,0.162-1.465,0.297-2.054,0.445c-0.583,0.179-1.073,0.336-1.466,0.472
				C911.471,237.072,911.074,237.255,911.098,237.339z"/>
		</g>
	</g>
</g>
<path fill="#2A1213" d="M1087.928,211.881c0,0,1.628,9.204-6.046,7.58s-11.979-5.136-20.644-2.014
	c-8.665,3.122-27.905,21.871-33.45,25.22c-5.545,3.349-17.549-2.792-17.549-2.792c4.35-2.918,29.924-25.637,49.048-32.528
	C1078.409,200.456,1087.928,211.881,1087.928,211.881z"/>
<g>
	<g>
		<g>
			<path fill="#404041" d="M1079.606,237.339c0.024-0.085-0.373-0.267-1.159-0.538c-0.393-0.136-0.883-0.293-1.466-0.472
				c-0.589-0.148-1.278-0.283-2.054-0.445c-3.094-0.577-7.785-0.973-13.394,0.17c-5.602,1.08-12.01,3.677-18.27,7.822
				c-6.277,4.124-12.468,9.652-17.995,16.31c-0.494,0.601-0.963,1.188-1.445,1.834l-6.22,8.332l8.065-6.596
				c6.31-5.161,12.863-9.352,19.271-12.138c6.396-2.814,12.598-4.181,17.841-4.484c5.254-0.323,9.512,0.35,12.371,1.04
				c2.872,0.695,4.372,1.375,4.455,1.22c0.088-0.144-1.304-1.145-4.177-2.153c-2.858-1.003-7.233-1.981-12.714-1.88
				c-5.466,0.078-11.992,1.318-18.683,4.115c-6.705,2.766-13.519,7.034-19.994,12.317c0.612,0.576,1.224,1.152,1.844,1.735
				c0.418-0.558,0.89-1.152,1.36-1.721c5.351-6.447,11.342-11.892,17.33-15.974c5.981-4.111,12.034-6.758,17.346-8.014
				c5.317-1.316,9.817-1.213,12.873-0.95c0.767,0.077,1.45,0.146,2.043,0.206c0.586,0.098,1.086,0.174,1.493,0.227
				C1079.139,237.408,1079.582,237.424,1079.606,237.339z"/>
		</g>
	</g>
</g>
<path fill="#E1E5E9" d="M953.855,363.431c0,0,15.885-9.681,45.747-10.17c29.862-0.489,41.601,12.228,41.601,12.228v22.989
	c0,0-22.552-11.25-41.601-10.272c-19.05,0.978-41.549,8.315-41.549,8.315L953.855,363.431z"/>
<path fill="#793F37" d="M1041.204,365.489c0,0-0.498-0.526-1.496-1.341c-1.536,4.105-4.082,9.471-6.819,9.167
	c-2.769-0.308,1.236,7.126,5.319,13.78c1.904,0.838,2.996,1.383,2.996,1.383V365.489z"/>
<path fill="#793F37" d="M958.053,386.521c0,0,0.442-0.143,1.23-0.387c0.226-4.578,3.943-9.822,3.943-9.822s6.567-7.889-0.978-8.674
	c-3.656-0.38-4.975-3.079-5.371-5.761c-1.998,0.932-3.02,1.552-3.02,1.552L958.053,386.521z"/>
</svg>
