<?xml version="1.0" encoding="utf-8"?>
<!-- Generator: Adobe Illustrator 17.0.0, SVG Export Plug-In . SVG Version: 6.00 Build 0)  -->
<!DOCTYPE svg PUBLIC "-//W3C//DTD SVG 1.1//EN" "http://www.w3.org/Graphics/SVG/1.1/DTD/svg11.dtd">
<svg version="1.1" id="Layer_1" xmlns="http://www.w3.org/2000/svg" xmlns:xlink="http://www.w3.org/1999/xlink" x="0px" y="0px"
	 width="28.6px" height="11.3px" viewBox="0 0 28.6 11.3" style="enable-background:new 0 0 28.6 11.3;" xml:space="preserve">
<style type="text/css">
	.st0{fill:#FFFFFF;}
	.st1{fill:#414042;}
</style>
<path class="st0" d="M28.6,3.8c0,0-7.8-2.7-15.5-3.5S0,1.3,0,1.3S1.2,11,10.6,11C20,11,24.6,13.8,28.6,3.8z"/>
<path class="st1" d="M13.1,2C8.1,1.9,2.8,1.9,0.1,2C0.1,1.6,0,1.3,0,1.3s5.5-1.9,13.1-1c5.7,0.7,11.5,2.3,14.1,3.1
	C23.1,2.8,17.3,2.1,13.1,2z"/>
<path class="st1" d="M13.1,0.2c1.5,0.2,3.1,0.4,4.6,0.7c0.4,0.7,0.7,1.5,0.7,2.4c0,2.8-2.4,5.1-5.3,5.1S7.8,6.2,7.8,3.4
	c0-1.3,0.5-2.4,1.4-3.3C10.4,0.1,11.7,0.1,13.1,0.2z"/>
</svg>
