<?xml version="1.0" encoding="utf-8"?>
<!-- Generator: Adobe Illustrator 17.0.0, SVG Export Plug-In . SVG Version: 6.00 Build 0)  -->
<!DOCTYPE svg PUBLIC "-//W3C//DTD SVG 1.1//EN" "http://www.w3.org/Graphics/SVG/1.1/DTD/svg11.dtd">
<svg version="1.1" xmlns="http://www.w3.org/2000/svg" xmlns:xlink="http://www.w3.org/1999/xlink" x="0px" y="0px"
	 width="6588.5px" height="1692.3px" viewBox="0 0 6588.5 1692.3" style="enable-background:new 0 0 6588.5 1692.3;"
	 xml:space="preserve">
<style type="text/css">
	.st0{display:none;}
	.st1{display:inline;fill:#232323;}
	.st2{display:inline;fill:none;stroke:#FFFFFF;stroke-width:40;stroke-miterlimit:10;}
	.st3{fill:none;stroke:#414042;stroke-width:100;stroke-miterlimit:10;}
	.st4{fill:#232321;}
</style>
<g id="Layer_1" class="st0">
	<rect class="st1" width="1445.7" height="1692.3"/>
</g>
<g id="Layer_3" class="st0">
	<polygon class="st2" points="728.7,371 444,773 720.6,1286.9 999.2,773.6 	"/>
	<polygon class="st2" points="727.1,373.6 568.9,596.9 722.6,882.5 877.4,597.3 	"/>
	<polygon class="st2" points="568.9,589.1 159.1,280.6 437.2,763.8 	"/>
	<polygon class="st2" points="873.1,589.1 1282.9,280.6 1004.8,763.8 	"/>
</g>
<g id="Layer_2">
	<polygon class="st3" points="757.7,371 473,773 749.6,1286.9 1028.2,773.6 	"/>
	<polygon class="st3" points="756.1,373.6 597.9,596.9 751.6,882.5 906.4,597.3 	"/>
	<polygon class="st3" points="597.9,589.1 188.1,280.6 466.2,763.8 	"/>
	<polygon class="st3" points="902.1,589.1 1311.9,280.6 1033.8,763.8 	"/>
	<g>
		<path class="st4" d="M1808.3,650.1h46.5c5.2,0,9.4,1.3,12.6,3.9c3.2,2.6,5.6,5.9,7.2,9.9l121.5,303.3c2.8,6.8,5.3,14.2,7.6,22.2
			c2.3,8,4.5,16.3,6.8,24.9c1.8-8.6,3.8-16.9,5.9-24.9c2.1-8,4.5-15.4,7.3-22.2l120.9-303.3c1.4-3.4,3.8-6.5,7.2-9.4
			c3.4-2.9,7.6-4.4,12.6-4.4h46.8L2036,1080h-52.5L1808.3,650.1z"/>
		<path class="st4" d="M2819,1080h-45c-5.2,0-9.4-1.3-12.6-3.9c-3.2-2.6-5.6-5.9-7.2-9.9L2714,962.4h-192.9l-40.2,103.8
			c-1.4,3.6-3.8,6.8-7.2,9.6c-3.4,2.8-7.6,4.2-12.6,4.2h-45L2588,650.1h59.1L2819,1080z M2537.3,920.4h160.5l-67.5-174.9
			c-4.4-10.8-8.7-24.3-12.9-40.5c-2.2,8.2-4.3,15.8-6.5,22.6c-2.1,6.9-4.2,13-6.1,18.1L2537.3,920.4z"/>
		<path class="st4" d="M3154.9,652c2.5,1.3,5.3,4,8.5,8l249,324c-0.6-5.2-1-10.2-1.2-15.2c-0.2-4.9-0.3-9.6-0.3-14.3V650.1h51V1080
			h-29.4c-4.6,0-8.5-0.8-11.6-2.4c-3.1-1.6-6.1-4.3-9.1-8.1l-248.7-323.7c0.4,5,0.7,9.9,0.9,14.7c0.2,4.8,0.3,9.2,0.3,13.2V1080h-51
			V650.1h30C3148.5,650.1,3152.4,650.7,3154.9,652z"/>
		<path class="st4" d="M4109.9,991.2c3.2,0,6.1,1.3,8.7,3.9l22.8,24.9c-17.6,20.4-39,36.3-64,47.7c-25.1,11.4-55.4,17.1-90.8,17.1
			c-31,0-59.1-5.3-84.3-16c-25.2-10.7-46.7-25.7-64.5-45c-17.8-19.3-31.6-42.5-41.4-69.5c-9.8-27-14.7-56.7-14.7-89.1
			c0-32.4,5.3-62.1,15.8-89.1s25.2-50.2,44.3-69.6c19-19.4,41.7-34.4,68.3-45.1c26.5-10.7,55.7-16.1,87.8-16.1
			c31.6,0,58.8,4.9,81.8,14.7c22.9,9.8,43.2,23.1,61,39.9l-18.9,26.7c-1.4,2-3,3.7-4.8,4.9c-1.8,1.3-4.4,2-7.8,2
			c-2.6,0-5.4-0.9-8.3-2.9c-2.9-1.9-6.4-4.2-10.3-7c-4-2.8-8.7-5.8-14.1-9c-5.4-3.2-11.8-6.2-19.2-9c-7.4-2.8-16-5.1-25.8-7.1
			c-9.8-1.9-21.1-2.8-33.9-2.8c-23,0-44.1,4-63.2,11.8c-19.1,7.9-35.5,19.2-49.3,33.8c-13.8,14.6-24.6,32.4-32.3,53.4
			c-7.7,21-11.5,44.5-11.5,70.5c0,26.8,3.8,50.7,11.5,71.7c7.7,21,18.2,38.8,31.5,53.3c13.3,14.5,29,25.6,47.3,33.2
			c18.2,7.6,37.8,11.4,58.8,11.4c12.8,0,24.3-0.8,34.5-2.3s19.7-3.8,28.3-7.1c8.7-3.2,16.8-7.2,24.3-12.1c7.5-4.9,15-10.7,22.6-17.5
			C4103.4,992.7,4106.7,991.2,4109.9,991.2z"/>
		<path class="st4" d="M4521.8,900.6V1080h-57.9V650.1h121.5c27.2,0,50.7,2.8,70.5,8.3c19.8,5.5,36.1,13.5,49,23.9
			c12.9,10.4,22.4,22.9,28.7,37.6c6.2,14.7,9.3,31.2,9.3,49.4c0,15.2-2.4,29.4-7.2,42.6c-4.8,13.2-11.8,25.1-20.8,35.5
			c-9.1,10.5-20.2,19.5-33.3,26.9c-13.1,7.4-28,13-44.5,16.8c7.2,4.2,13.6,10.3,19.2,18.3l125.4,170.7H4730
			c-10.6,0-18.4-4.1-23.4-12.3L4595,914.1c-3.4-4.8-7.1-8.3-11.1-10.3c-4-2.1-10-3.2-18-3.2H4521.8z M4521.8,858.3h60.9
			c17,0,32-2,44.8-6.2c12.9-4.1,23.7-9.9,32.4-17.4s15.2-16.4,19.7-26.9c4.4-10.4,6.6-21.9,6.6-34.5c0-25.6-8.5-44.9-25.3-57.9
			c-16.9-13-42.1-19.5-75.5-19.5h-63.6V858.3z"/>
		<path class="st4" d="M5469.8,865.2c0,32.2-5.1,61.8-15.3,88.6c-10.2,26.9-24.6,50.1-43.2,69.5c-18.6,19.4-41,34.5-67,45.2
			c-26.1,10.7-55,16-86.5,16c-31.6,0-60.4-5.3-86.4-16c-26-10.7-48.3-25.7-66.9-45.2c-18.6-19.4-33-42.5-43.2-69.5
			c-10.2-26.9-15.3-56.4-15.3-88.6c0-32.2,5.1-61.7,15.3-88.7c10.2-26.9,24.6-50.1,43.2-69.6c18.6-19.5,40.9-34.7,66.9-45.5
			c26-10.8,54.8-16.2,86.4-16.2c31.6,0,60.4,5.4,86.5,16.2c26.1,10.8,48.5,26,67,45.5s33,42.7,43.2,69.6
			C5464.7,803.4,5469.8,833,5469.8,865.2z M5410.1,865.2c0-26.4-3.6-50.1-10.8-71.1s-17.4-38.7-30.6-53.3
			c-13.2-14.5-29.2-25.6-48-33.5c-18.8-7.8-39.8-11.7-63-11.7c-23,0-43.9,3.9-62.7,11.7c-18.8,7.8-34.9,19-48.2,33.5
			c-13.3,14.5-23.5,32.3-30.8,53.3s-10.8,44.7-10.8,71.1c0,26.4,3.6,50.1,10.8,70.9c7.2,20.9,17.4,38.6,30.8,53.1
			c13.3,14.5,29.3,25.6,48.2,33.3c18.8,7.7,39.7,11.5,62.7,11.5c23.2,0,44.2-3.8,63-11.5c18.8-7.7,34.8-18.8,48-33.3
			c13.2-14.5,23.4-32.2,30.6-53.1C5406.5,915.2,5410.1,891.6,5410.1,865.2z"/>
		<path class="st4" d="M5741.3,650.1h48.3c5.2,0,9.5,1.3,12.9,3.9c3.4,2.6,5.7,5.9,6.9,9.9l88.8,298.8c1.6,5.4,3,11.2,4.4,17.4
			c1.3,6.2,2.5,12.7,3.8,19.5c1.4-6.8,2.8-13.3,4.2-19.6c1.4-6.3,3-12,4.8-17.3l101.1-298.8c1.2-3.4,3.5-6.5,7-9.4
			c3.5-2.9,7.7-4.4,12.8-4.4h16.8c5.2,0,9.4,1.3,12.8,3.9c3.3,2.6,5.6,5.9,7,9.9l100.5,298.8c3.6,10.4,6.8,22.3,9.6,35.7
			c1.2-6.6,2.3-12.9,3.3-18.9c1-6,2.3-11.6,3.9-16.8l89.1-298.8c1-3.6,3.2-6.8,6.8-9.6c3.5-2.8,7.7-4.2,12.8-4.2h45.3L6209.9,1080
			h-52.2l-108.9-327.9c-2.2-6.2-4.2-13.4-6-21.6c-1,4-2,7.9-2.9,11.5c-0.9,3.7-1.9,7.1-2.8,10.1L5927.6,1080h-52.2L5741.3,650.1z"/>
	</g>
</g>
</svg>
