<?xml version="1.0" encoding="utf-8"?>
<!-- Generator: Adobe Illustrator 17.0.0, SVG Export Plug-In . SVG Version: 6.00 Build 0)  -->
<!DOCTYPE svg PUBLIC "-//W3C//DTD SVG 1.1//EN" "http://www.w3.org/Graphics/SVG/1.1/DTD/svg11.dtd">
<svg version="1.1" id="Layer_1" xmlns="http://www.w3.org/2000/svg" xmlns:xlink="http://www.w3.org/1999/xlink" x="0px" y="0px"
	 width="2010.771px" height="1244.541px" viewBox="0 0 2010.771 1244.541" enable-background="new 0 0 2010.771 1244.541"
	 xml:space="preserve">
<path fill="#F9A469" d="M1077.022,363.163c0,0-2.702,115.031,39.061,117.649c41.762,2.617-65.08,62.816-79.055,62.816
	c-13.975,0-130.539,0-130.539,0l-24.173-41.877c0,0,40.422-88.917,33.519-128.502
	C908.932,333.664,1077.022,363.163,1077.022,363.163z"/>
<path fill="#F7945A" d="M1080.223,416.447c-3.804-27.456-3.201-53.284-3.201-53.284s-168.09-29.499-161.187,10.085
	c2.714,15.563-1.889,38.752-8.473,61.165C991.623,451.023,1046.542,435.664,1080.223,416.447z"/>
<path fill="#2A2824" d="M863.396,461.182c0,0,41.311,56.272,131.892,48.42s135.903-66.742,135.903-66.742s81.617-9.161,90.778,39.26
	c9.161,48.42,7.852,64.124,7.852,64.124s26.173,34.025,26.173,39.26s-81.022,134.792-81.022,159.657
	c0,0-17.128-14.395-18.436-24.865c-1.309-10.469-7.68,137.409-23.556,159.657c-15.876,22.247-195.645-3.902-195.645-3.902
	s-40.141-128.006-67.829-150.52c0,0,1.504,28.791-14.081,32.716c-15.585,3.926-41.758-73.285-104.574-66.742
	c-62.816,6.543-49.729,14.973-49.729,14.973s19.63-119.666,30.099-136.678C753.736,533.214,815.487,463.41,863.396,461.182z"/>
<path fill="#2A4671" d="M1042.683,1017.363c0,0,128.697,85.275,221.395-43.186c92.698-128.46,70.411-326.18,70.411-326.18
	s-84.527,35.333-168.163,87.606c-53.094,33.184-111.675,66.497-129.297,123.412c0,0-28.37-6.543-34.914,3.926
	c-6.543,10.469-71.091-137.574-215.34-143.298S668.406,811.903,712.9,886.497s164.891,162.796,215.929,158.609
	C979.867,1040.919,1042.683,1017.363,1042.683,1017.363z"/>
<path fill="#F7945A" d="M833.62,811.024c16.77-28.391,36.56-85.491,36.56-85.491l-51.933-39.916l-44.103-35.06
	c2.13,4.63,4.398,8.736,6.806,12.022c18.321,25.001,60.198,125.768,53.655,145.398C834.298,808.901,833.965,809.937,833.62,811.024z
	"/>
<path fill="#1C365B" d="M1244.599,1005.406c-109.307,2.182-209.768-31.229-209.768-31.229
	c-56.839,35.58-132.953,20.318-225.53,14.312c45.692,35.711,91.719,59.464,127.48,56.617
	c51.048-4.065,113.853-27.743,113.853-27.743S1155.899,1087.098,1244.599,1005.406z"/>
<path fill="#2A4671" d="M733.839,750.396c0,0,144.395,87.68,135.668,196.299s25.298,153.252,25.298,153.252l-129.557-15.843
	c0,0,10.469-28.791-13.087-51.038c-23.556-22.247-96.841-85.063-92.915-171.435c3.926-86.372,13.574-117.807,40.158-123.028
	C725.987,733.383,733.839,750.396,733.839,750.396z"/>
<path fill="#1C365B" d="M869.507,946.695c5.309-66.07-46.036-124.389-87.078-159.944c11.548,68.119,31.943,186.934,39.734,222.962
	c5.276,24.398,27.533,58.387,49.493,87.404l23.148,2.831C894.804,1099.947,860.779,1055.314,869.507,946.695z"/>
<path fill="#2A2824" d="M882.739,701.976l-26.022,59.356c0,0-69.223-85.802-99.322-98.752s39.26-75.358,39.26-75.358
	L882.739,701.976z"/>
<path fill="#2A4671" d="M1351.526,647.648c0,0,53.655,127.612-14.395,238.848c-68.05,111.236-57.581,187.138-40.568,202.842
	c17.013,15.704-140.027,48.421-140.027,48.421s40.568-124.323,34.025-153.113c-6.543-28.791-49.164-139.729-24.236-184.521
	C1191.253,755.333,1233.747,644.359,1351.526,647.648z"/>
<path fill="#F5DBBF" d="M1371.619,1180.945c0.339-10.553-53.48-56.968-82.239-80.998c-22.287,12.056-83.033,26.704-114.062,33.703
	c17.775,41.94,100.785,83.522,119.937,93.098c23.556,11.778,37.951,10.469,58.89,0
	C1375.082,1216.279,1371.156,1195.34,1371.619,1180.945z"/>
<path fill="#F5DBBF" d="M776.697,1085.504c-29.783,41.675-85.247,88.808-87.352,104.601c-2.617,19.63,3.926,28.791,19.63,44.992
	c45.657,47.105,154.286-97.339,173.341-97.339c5.974,0-0.166-22.553-5.828-40.052L776.697,1085.504z"/>
<path fill="#1C365B" d="M1225.895,959.127c-21.373-54.146-43.777-128.966-53.965-169.499c-1.97,3.787-3.834,7.313-5.605,10.496
	c-1.534,2.757-2.81,5.766-3.857,8.989l-3.39,42.005c3.69,50.371,26.805,112.943,31.483,133.527
	c6.543,28.79-34.025,153.113-34.025,153.113s13.309-2.774,31.746-7.089C1209.562,1085.466,1247.444,1013.718,1225.895,959.127z"/>
<path fill="#F4F4F4" d="M688.784,1163.709"/>
<path fill="#821A1D" d="M876.488,1097.708l-99.791-12.203c-19.35,27.077-49.529,56.449-68.883,78.042
	c26.606,11.256,60.937,27.71,66.331,39.646l109.69-78.519C882.363,1116.793,879.365,1106.6,876.488,1097.708z"/>
<path fill="#F5DBBF" d="M772.507,1152.699l-35.348-20.626c-3.538,3.791-7.034,7.502-10.448,11.122
	c11.262,9.035,34.215,26.01,45.795,24.327C788.211,1165.241,772.507,1152.699,772.507,1152.699z"/>
<path fill="#F5DBBF" d="M763.774,1102.155c10.169,8.332,35.597,27.908,47.993,26.108c15.704-2.281,0-14.823,0-14.823l-38.916-22.708
	C769.99,1094.516,766.938,1098.333,763.774,1102.155z"/>
<path fill="#F5DBBF" d="M745.579,1122.953c10.96,8.855,34.711,26.66,46.557,24.939c15.704-2.281,0-14.824,0-14.824l-36.532-21.317
	C752.317,1115.513,748.958,1119.253,745.579,1122.953z"/>
<path fill="#821A1D" d="M1289.38,1099.947c-18.584,10.053-63.897,21.904-96.435,29.624c29.386,32.177,80.534,57.263,80.534,57.263
	c4.963-14.68,46.645-25.192,78.491-31.17C1333.758,1137.57,1306.917,1114.601,1289.38,1099.947z"/>
<path fill="#F5DBBF" d="M1289.38,1099.947c-6.769,3.661-17.091,7.561-29.042,11.413c-11.196,5.808-18.798,11.925-15.738,17.019
	c6.37,10.605,44.622-2.931,65.141-11.159C1302.353,1110.853,1295.327,1104.917,1289.38,1099.947z"/>
<path fill="#F5DBBF" d="M1337.47,1141.847c-6.503-5.998-13.396-12.145-20.188-18.081c-22.542,8.007-52.776,20.79-47.164,30.133
	C1276.723,1164.896,1317.624,1149.93,1337.47,1141.847z"/>
<g>
	<path fill="#F7945A" d="M1255.302,587.221c-7.868,15.135-81.441,117.738-88.977,148.382c6.343,10.843,13.427,22.384,20.471,32.74
		c17.008-52.496,46.129-104.885,46.129-104.885S1246.371,618.523,1255.302,587.221z"/>
	<path fill="none" stroke="#60A3D8" stroke-miterlimit="10" d="M1255.93,585.016c2.161-7.601,4.022-14.289,5.299-19.141
		c0,0-5.661,0.773-13.205,0h-3.722C1250.002,573.942,1255.336,582.072,1255.93,585.016z"/>
</g>
<path fill="#2C78BC" d="M1958.873,932.52c-1,12.971-12.325,22.676-25.297,21.676l-482.772-37.211
	c-12.971-1-22.676-12.325-21.676-25.297l51.827-672.396c1-12.971,12.325-22.676,25.297-21.676l482.772,37.211
	c12.971,1,22.676,12.325,21.676,25.297L1958.873,932.52z"/>
<path fill="#2C78BC" d="M51.898,932.52c1,12.971,12.325,22.676,25.296,21.676l482.772-37.211c12.971-1,22.676-12.325,21.676-25.297
	l-51.827-672.396c-1-12.971-12.325-22.676-25.297-21.676L21.747,234.828c-12.971,1-22.676,12.325-21.676,25.297L51.898,932.52z"/>
<ellipse fill="#FFFFFF" cx="1719.914" cy="585.016" rx="195.799" ry="181.448"/>
<ellipse fill="#FFFFFF" cx="292.82" cy="585.016" rx="195.799" ry="181.448"/>
<g>
	
		<text transform="matrix(0.9971 0.0766 -0.0766 0.9971 1616.7805 608.3144)" fill="#2C78BC" font-family="'Lato-Bold'" font-size="117.7794">php</text>
</g>
<text transform="matrix(0.9699 -0.2436 0.2436 0.9699 141.2864 664.1503)" fill="#2C78BC" font-family="'Lato-Bold'" font-size="117.7794">mysql</text>
<path fill="#97999C" d="M565.047,494.53c0,0,369.521-15.609,451.591-18.952s397.705,0,447.434,19.63l-6.543,48.42
	c0,0-309.41-31.408-462.24-26.173s-440.736,26.173-440.736,26.173l-6.543-49.729L565.047,494.53z"/>
<path fill="#F9A469" d="M1314.884,565.875c0,0-18.321,209.386-19.63,234.25c-1.309,24.865-41.877,77.211-74.594,75.902
	c-32.717-1.309-54.964-18.321-41.877-78.52c13.087-60.198,54.142-134.05,54.142-134.05s21.76-72.719,28.304-97.583
	c0,0-37.951,5.235-48.42-24.864c0,0-24.865,3.926-27.482-19.63c-2.617-23.556,6.544-71.982,6.544-71.982s9.059-3.175,18.667,11.463
	s16.832,53.953,16.832,53.953l17.559-1.286c0,0,3.214-64.717,17.609-64.421c14.395,0.296,106.002,22.544,106.002,22.544
	s-1.309,78.52-13.087,87.68S1314.884,565.875,1314.884,565.875z"/>
<path fill="#F9A469" d="M752.16,565.875c0,0,10.469,71.703,28.791,96.704s60.198,125.768,53.655,145.398
	c-6.543,19.63-21.56,78.52-40.879,78.52s-54.653-14.395-79.518-66.742c-24.865-52.346-10.116-134.828-14.219-172.107
	c-4.103-37.279-17.189-81.774-17.189-81.774s-28.791-2.617-36.643-19.63c-7.852-17.013,2.617-64.124,7.852-68.05
	c5.235-3.926,99.458-29.088,99.458-29.088l9.161,27.779c0,0,52.421-28.664,57.581-15.704c5.16,12.96-36.643,83.754-48.42,87.68
	C760.012,552.788,752.16,565.875,752.16,565.875z"/>
<path fill="#F7945A" d="M1314.753,567.37c-12.81-5.749-22.116-10.656-22.116-10.656c20.551,99.128-45.434,228.015-99.169,312.429
	c7.481,4.461,16.805,6.469,27.192,6.884c32.716,1.309,73.285-51.038,74.594-75.902
	C1296.498,776.485,1313.118,586.076,1314.753,567.37z"/>
<path fill="#F7945A" d="M682.801,565.875c0,0,13.087,44.495,17.189,81.774c4.103,37.279-10.646,119.76,14.219,172.107
	c23.835,50.178,57.28,65.474,77.027,66.656c-46.445-109.87-91.245-329.697-91.245-329.697l-24.223,8.009
	C679.934,565.613,682.801,565.875,682.801,565.875z"/>
<path fill="#F7945A" d="M654.011,478.195c-5.235,3.926-15.704,51.038-7.852,68.05c7.852,17.013,36.642,19.63,36.642,19.63
	s3.129,10.645,6.805,25.869c9.02-7.799,14.331-16.516,12.295-25.869c-5.54-25.443,0.365-75.66,4.474-103.884
	C681.954,468.825,656.652,476.213,654.011,478.195z"/>
<path fill="#F7945A" d="M1295.479,575.445c0.262,6.623,6.934,14.943,16.519,23.556c1.739-20.03,2.885-33.127,2.885-33.127
	s28.791,2.617,40.568-6.543c11.778-9.161,13.087-87.68,13.087-87.68s-30.13-7.317-58.546-13.614
	C1304.074,496.006,1294.817,558.704,1295.479,575.445z"/>
<path fill="#F7945A" d="M1125.145,225.358c-6.07-1.392-15.991,3.23-24.144,11.136c-0.045,16.537-0.05,35.455,0.115,42.584
	c0.112,4.809,0.124,14.072,0.099,23.996c2.46,1.861,5.119,2.961,7.924,2.961C1136.002,306.035,1134.271,227.454,1125.145,225.358z"
	/>
<path fill="#F7945A" d="M882.739,234.201c-7.593-6.443-16.142-10.092-21.585-8.843c-7.523,1.727-9.161,80.678,16.003,80.678
	c1.944,0,3.792-0.649,5.582-1.568C882.739,276.419,882.739,253.179,882.739,234.201z"/>
<path fill="#414142" d="M883.205,279.641c0-291.964,0,174.675,0-123.99c0,0,55.961-15.437,112.684-15.437
	c56.723,0,106.654,23.9,106.654,23.9l-0.112,44.295c0,0-0.149,26.809-0.139,48.15c18.348-75.598,48.136-206.457-6.66-205.572
	c0,0-14.445-24.379-81.26-33.141C975.495,12.747,966.891,0,966.891,0l13.065,16.571c0,0-42.184-8.285-47.063-13.703l20.614,21.988
	c0,0-65.944,7.329-84.118-0.637l50.977,19.12c0,0-58.316,15.615-63.096,10.516l23.581,18.801c0,0-23.472,19.757-25.279,19.757
	s13.817,1.912,13.817,1.912C860.575,96.316,869.572,225.798,883.205,279.641z"/>
<path fill="#F9A469" d="M1102.389,208.015c0,0-0.319,57.36,0,71.063s-0.142,63.096-0.142,63.096l-67.416,84.128l-73.931,1.912
	l-78.585-69.45c0-588.605,0,383.465,0-203.507c0,0,55.959-15.437,112.682-15.437c56.723,0,107.503,23.9,107.503,23.9
	L1102.389,208.015z"/>
<path fill="#F7945A" d="M901.311,350.804c-3.169-11.318-0.706-165.78-0.118-200.043c-11.746,2.529-18.877,4.496-18.877,4.496
	c0,1.998,0,3.97,0,5.932c0-0.701,0,46.628,0,190.723c0,2.26,0,4.544,0,6.853l75.493,66.717
	C937.078,400.838,903.844,359.854,901.311,350.804z"/>
<path fill="#F7945A" d="M1102.389,279.078c-0.319-13.703,0-71.063,0-71.063l0.112-44.295c0,0-7.194-3.385-19.188-7.607
	c0.909,42.896,3.553,181.965-0.275,187.017c-2.489,3.285-18.016,34.695-31.495,62.318l50.704-63.274
	C1102.247,342.174,1102.707,292.781,1102.389,279.078z"/>
<path fill="#2A1214" d="M898.139,210.39c0,0-1.634,9.234,6.066,7.605c7.7-1.629,12.019-5.154,20.713-2.021
	c8.694,3.133,27.998,21.944,33.562,25.304s17.607-2.801,17.607-2.801c-4.365-2.928-30.023-25.722-49.211-32.636
	C907.69,198.927,898.139,210.39,898.139,210.39z"/>
<path fill="#A06B43" d="M1015.075,320.505c7.329,5.417-13.188,13.318-18.924,13.318c-16.684,0-24.67-5.166-21.547-11.725
	c3.187-6.692,10.654-0.363,19.374,7.316C999.692,334.446,1005.955,313.764,1015.075,320.505z"/>
<path fill="#F7945A" d="M1021.568,316.999c-4.576-1.992-12.055-0.342-16.23,5.124c2.811-2.466,6.321-4.143,9.737-1.618
	c7.329,5.417-9.367,11.196-15.103,11.196c-5.736,0-10.472,0.566-10.472,0.566s-19.287-0.944-14.896-10.168
	c1.678-3.522,4.561-3.386,8.166-1.397c-0.941-2.031-1.668-4.263-1.793-6.889c-0.637-13.384,0-22.944,0-22.944
	s-18.801,24.537-19.439,29.955c-0.637,5.417,1.593,19.12,1.593,19.12s18.722,3.187,28.003,3.187s29.357-13.055,32.863-15.61
	C1027.503,324.966,1027.423,319.549,1021.568,316.999z"/>
<g>
	<g>
		<g>
			<path fill="#414142" d="M906.489,235.933c0.024,0.085,0.468,0.068,1.284-0.039c0.408-0.054,0.909-0.13,1.497-0.228
				c0.595-0.06,1.28-0.129,2.05-0.207c3.066-0.264,7.581-0.368,12.916,0.952c5.33,1.26,11.404,3.915,17.406,8.04
				c6.008,4.096,12.02,9.559,17.388,16.028c0.471,0.572,0.945,1.167,1.364,1.727c0.62-0.584,1.233-1.16,1.845-1.735
				c-6.496-5.3-13.332-9.582-20.06-12.357c-6.714-2.806-13.26-4.05-18.744-4.129c-5.498-0.102-9.888,0.879-12.755,1.885
				c-2.882,1.011-4.279,2.015-4.191,2.159c0.082,0.155,1.587-0.529,4.469-1.226c2.869-0.693,7.141-1.369,12.413-1.045
				c5.261,0.303,11.484,1.674,17.902,4.498c6.43,2.796,13.006,7.001,19.337,12.179l8.065,6.596l-6.22-8.332
				c-0.484-0.648-0.954-1.237-1.449-1.84c-5.545-6.68-11.757-12.225-18.054-16.363c-6.28-4.159-12.709-6.765-18.329-7.848
				c-5.628-1.147-10.333-0.751-13.438-0.172c-0.778,0.163-1.469,0.298-2.06,0.446c-0.585,0.179-1.077,0.337-1.471,0.473
				C906.864,235.666,906.465,235.848,906.489,235.933z"/>
		</g>
	</g>
</g>
<path fill="#2A1214" d="M1083.907,210.39c0,0,1.634,9.234-6.066,7.605s-12.019-5.154-20.713-2.021
	c-8.694,3.133-27.998,21.944-33.562,25.304s-17.607-2.801-17.607-2.801c4.365-2.928,30.024-25.722,49.211-32.636
	C1074.357,198.927,1083.907,210.39,1083.907,210.39z"/>
<g>
	<g>
		<g>
			<path fill="#414142" d="M1075.557,235.933c0.024-0.085-0.375-0.267-1.163-0.539c-0.394-0.136-0.886-0.294-1.471-0.473
				c-0.591-0.149-1.282-0.284-2.06-0.446c-3.104-0.579-7.81-0.975-13.438,0.172c-5.62,1.084-12.048,3.689-18.329,7.848
				c-6.297,4.138-12.509,9.684-18.054,16.363c-0.496,0.602-0.966,1.192-1.449,1.84l-6.22,8.332l8.065-6.596
				c6.331-5.178,12.907-9.383,19.337-12.179c6.418-2.824,12.641-4.195,17.902-4.498c5.272-0.324,9.544,0.352,12.413,1.045
				c2.882,0.697,4.387,1.381,4.469,1.226c0.088-0.144-1.309-1.148-4.191-2.159c-2.867-1.006-7.257-1.987-12.755-1.885
				c-5.484,0.079-12.031,1.323-18.744,4.129c-6.727,2.776-13.563,7.057-20.06,12.357c0.612,0.576,1.224,1.152,1.844,1.735
				c0.419-0.56,0.893-1.156,1.365-1.727c5.369-6.469,11.381-11.932,17.388-16.028c6.001-4.125,12.076-6.78,17.406-8.04
				c5.335-1.32,9.85-1.216,12.916-0.952c0.77,0.078,1.454,0.147,2.05,0.207c0.588,0.098,1.089,0.175,1.497,0.228
				C1075.089,236.002,1075.534,236.018,1075.557,235.933z"/>
		</g>
	</g>
</g>
<path fill="#E2E5E9" d="M949.389,362.444c0,0,15.938-9.713,45.899-10.204c29.962-0.491,41.74,12.269,41.74,12.269v23.065
	c0,0-22.627-11.287-41.74-10.306c-19.113,0.982-41.687,8.343-41.687,8.343L949.389,362.444z"/>
<path fill="#7A4038" d="M1037.028,364.509c0,0-0.5-0.528-1.501-1.346c-1.541,4.118-4.096,9.503-6.842,9.198
	c-2.778-0.309,1.24,7.15,5.337,13.826c1.91,0.841,3.006,1.387,3.006,1.387V364.509z"/>
<path fill="#7A4038" d="M953.601,385.611c0,0,0.443-0.144,1.234-0.388c0.226-4.593,3.956-9.854,3.956-9.854s6.589-7.915-0.982-8.702
	c-3.668-0.381-4.991-3.09-5.389-5.78c-2.005,0.935-3.03,1.558-3.03,1.558L953.601,385.611z"/>
</svg>
