<?xml version="1.0" encoding="utf-8"?>
<!-- Generator: Adobe Illustrator 17.0.0, SVG Export Plug-In . SVG Version: 6.00 Build 0)  -->
<!DOCTYPE svg PUBLIC "-//W3C//DTD SVG 1.1//EN" "http://www.w3.org/Graphics/SVG/1.1/DTD/svg11.dtd">
<svg version="1.1" id="Layer_1" xmlns="http://www.w3.org/2000/svg" xmlns:xlink="http://www.w3.org/1999/xlink" x="0px" y="0px"
	 width="28.6px" height="11.3px" viewBox="0 0 28.6 11.3" style="enable-background:new 0 0 28.6 11.3;" xml:space="preserve">
<style type="text/css">
	.st0{fill:#FFFFFF;}
	.st1{fill:#414042;}
</style>
<path class="st0" d="M0,3.8c0,0,7.8-2.7,15.5-3.5s13.1,1,13.1,1S27.4,11,18,11C8.5,11,4,13.8,0,3.8z"/>
<path class="st1" d="M15.5,2c5.1-0.1,10.3-0.1,13,0c0.1-0.4,0.1-0.7,0.1-0.7s-5.5-1.9-13.1-1C9.7,0.9,4,2.5,1.4,3.3
	C5.5,2.8,11.3,2.1,15.5,2z"/>
<path class="st1" d="M15.5,0.2c-1.5,0.2-3.1,0.4-4.6,0.7c-0.4,0.7-0.7,1.5-0.7,2.4c0,2.8,2.4,5.1,5.3,5.1s5.3-2.3,5.3-5.1
	c0-1.3-0.5-2.4-1.4-3.3C18.2,0.1,16.9,0.1,15.5,0.2z"/>
</svg>
