<?xml version="1.0" encoding="utf-8"?>
<!-- Generator: Adobe Illustrator 17.0.0, SVG Export Plug-In . SVG Version: 6.00 Build 0)  -->
<!DOCTYPE svg PUBLIC "-//W3C//DTD SVG 1.1//EN" "http://www.w3.org/Graphics/SVG/1.1/DTD/svg11.dtd">
<svg version="1.1" id="Layer_1" xmlns="http://www.w3.org/2000/svg" xmlns:xlink="http://www.w3.org/1999/xlink" x="0px" y="0px"
	 width="152.8px" height="265.3px" viewBox="0 0 152.8 265.3" style="enable-background:new 0 0 152.8 265.3;" xml:space="preserve"
	>
<g>
	<g>
		<g>
			<path d="M85.9,259.8c0.2,1.1,9.9,0.2,23.9-7c3.5-1.8,7.2-4.1,11-6.9c3.8-2.8,7.7-6.1,11.4-10c3.7-4,7.2-8.5,10.2-13.8
				c0.4-0.7,0.7-1.3,1.1-2c0.4-0.7,0.7-1.4,1-2.1c0.7-1.4,1.3-2.8,1.9-4.3c0.3-0.7,0.6-1.5,0.9-2.3c0.3-0.8,0.6-1.5,0.8-2.3
				c0.2-0.8,0.4-1.6,0.6-2.4c0.1-0.4,0.2-0.8,0.3-1.2l0.2-1.3c0.7-3.4,0.8-6.9,0.7-10.4c-0.2-3.6-0.9-7.1-1.9-10.5
				c-1-3.5-2.5-6.7-4.1-9.9c-1.7-3.1-3.6-6.1-5.6-9c-8.4-11.4-18.8-20.6-29.5-29.1c-10.7-8.4-21.6-16-32.1-23.2l-1-0.7
				c-0.3-0.2-0.7-0.5-0.9-0.6c-0.5-0.4-1.1-0.7-1.6-1.1c-0.5-0.4-1-0.8-1.4-1.2c-0.4-0.4-0.9-0.8-1.3-1.3c-1.7-1.7-3.1-3.6-4.2-5.6
				c-2.2-4-3.2-8.6-3.4-13.4c-0.1-4.7,0.5-9.4,1.5-13.8c1-4.4,2.3-8.5,3.8-12.3c2.8-7.6,6-14,8.8-19.4c5.7-10.8,10-17.8,12.6-22.6
				c2.6-4.8,3.7-7.4,3.8-9c0.1-1.6-0.7-2.2-1.5-2.9c-0.8-0.7-1.6-1.4-3.1-0.9c-1.6,0.5-4,2.2-7.9,6.3c-3.9,4.2-9.4,10.9-16.2,22
				c-3.4,5.6-7.1,12.4-10.5,20.9c-1.7,4.3-3.3,9-4.6,14.2c-1.3,5.3-2.2,11.2-2,17.7c0.1,3.3,0.5,6.7,1.4,10.1
				c0.9,3.4,2.2,6.9,4,10.2c1.8,3.3,4.2,6.3,6.9,9c0.7,0.7,1.4,1.3,2.1,1.9c0.7,0.6,1.5,1.2,2.2,1.8c0.7,0.6,1.5,1.1,2.3,1.6
				c0.4,0.3,0.7,0.5,1,0.7l1,0.7c10.6,6.9,21.5,14.1,31.9,21.9c10.4,7.7,20.4,16.1,27.9,25.5c1.9,2.4,3.6,4.8,5,7.3
				c1.4,2.5,2.7,5,3.6,7.6c1.8,5.2,2.5,10.5,1.8,15.6l-0.1,1c0,0.3-0.1,0.6-0.2,1c-0.1,0.6-0.3,1.3-0.4,1.9
				c-0.2,0.6-0.4,1.3-0.5,1.9c-0.2,0.6-0.3,1.3-0.6,1.9c-0.5,1.3-0.9,2.5-1.4,3.8c-0.3,0.6-0.5,1.2-0.8,1.8
				c-0.3,0.6-0.6,1.2-0.8,1.8c-2.2,4.7-5,9-8,12.7c-6,7.6-12.9,13.2-19,17.4c-6.1,4.2-11.5,7-15.2,8.9
				C87.9,258.4,85.9,259.3,85.9,259.8z"/>
		</g>
	</g>
</g>
<g>
	<g>
		<g>
			<path d="M34.2,259.8c0.2,1.1,6.4,0.9,15.3-3.4c0.6-0.3,1.1-0.5,1.7-0.8c0.6-0.3,1.1-0.6,1.7-1c1.2-0.6,2.4-1.5,3.6-2.3
				c1.2-0.8,2.4-1.8,3.7-2.8c0.6-0.5,1.2-1.1,1.8-1.6c0.6-0.6,1.3-1.1,1.8-1.8c1.2-1.3,2.4-2.5,3.5-4c0.6-0.7,1.1-1.5,1.7-2.2
				c0.5-0.8,1-1.6,1.5-2.4c0.3-0.4,0.5-0.8,0.8-1.2c0.2-0.4,0.4-0.9,0.7-1.3c0.4-0.9,0.9-1.8,1.3-2.7c0.4-0.9,0.8-2,1.1-3
				c0.3-1.1,0.6-2.1,0.8-3.2c0.9-4.4,0.7-9.4-0.7-14c-0.6-2.3-1.6-4.5-2.6-6.5c-1.1-2.1-2.3-4-3.6-5.9c-5.3-7.4-11.9-13.2-18.4-18.6
				c-6.6-5.3-13.4-10.1-19.9-14.5l-0.6-0.4c-0.2-0.1-0.4-0.3-0.5-0.4l-0.8-0.6c-0.3-0.2-0.5-0.4-0.8-0.6l-0.6-0.7
				c-0.2-0.2-0.5-0.4-0.6-0.7c-0.2-0.2-0.3-0.5-0.5-0.7c-0.2-0.2-0.4-0.4-0.5-0.7c-0.1-0.3-0.3-0.5-0.4-0.8c-1.1-2-1.6-4.3-1.7-6.9
				c-0.1-2.6,0.3-5.2,0.9-7.7c0.5-2.5,1.3-4.9,2.1-7.2c1.7-4.5,3.5-8.4,5.1-11.7c3.3-6.6,5.7-11,7.1-14c1.4-3.1,1.8-4.8,1.5-6
				c-0.2-1.2-1-1.8-1.8-2.5c-0.8-0.7-1.6-1.3-2.8-1.3c-1.2,0.1-3,0.9-5.6,3.4c-2.6,2.5-6.2,6.5-10.7,13.5c-2.2,3.5-4.6,7.8-6.8,13.2
				c-1.1,2.7-2.2,5.7-3,9.1c-0.8,3.4-1.4,7.3-1.3,11.7c0.1,4.4,1.1,9.3,3.7,13.8c0.3,0.6,0.7,1.1,1,1.7c0.3,0.6,0.8,1,1.2,1.6
				l1.2,1.5c0.4,0.5,0.9,0.9,1.4,1.4l1.4,1.3c0.5,0.4,1,0.8,1.5,1.2l1.5,1.1c0.3,0.2,0.5,0.3,0.7,0.4l0.6,0.4
				c6.5,4.2,13.2,8.6,19.6,13.2c6.3,4.6,12.4,9.6,16.9,15c1.1,1.4,2.1,2.7,3,4.1c0.8,1.4,1.6,2.8,2.1,4.3c1.1,2.9,1.5,5.7,1.2,8.6
				c0,0.7-0.2,1.4-0.3,2.2c-0.2,0.7-0.3,1.4-0.6,2.2c-0.3,0.7-0.5,1.5-0.8,2.2c-0.1,0.4-0.2,0.7-0.4,1.1c-0.2,0.3-0.3,0.7-0.5,1
				c-0.3,0.7-0.6,1.4-1,2.1c-0.4,0.7-0.8,1.3-1.1,1.9c-0.7,1.3-1.6,2.5-2.4,3.6c-0.4,0.6-0.9,1.1-1.3,1.7c-0.5,0.5-0.9,1.1-1.3,1.6
				c-1,1-1.8,2-2.8,2.9c-1,0.9-1.9,1.8-2.8,2.5c-0.5,0.4-0.9,0.8-1.4,1.1c-0.5,0.4-0.9,0.7-1.4,1c-3.6,2.7-6.8,4.6-8.9,5.9
				c-1.1,0.7-1.9,1.2-2.5,1.6C34.4,259.3,34.1,259.5,34.2,259.8z"/>
		</g>
	</g>
</g>
</svg>
